<svg xmlns="http://www.w3.org/2000/svg" xmlns:xlink="http://www.w3.org/1999/xlink" width="432" zoomAndPan="magnify" viewBox="0 0 324 187.499995" height="250" preserveAspectRatio="xMidYMid meet" version="1.0"><defs><clipPath id="b1e5a168c0"><path d="M 101 56.011719 L 142 56.011719 L 142 90 L 101 90 Z M 101 56.011719 " clip-rule="nonzero"/></clipPath><clipPath id="9da90ae655"><path d="M 108 121 L 134 121 L 134 130.8125 L 108 130.8125 Z M 108 121 " clip-rule="nonzero"/></clipPath><clipPath id="e4951d2a2a"><path d="M 189 65 L 203.351562 65 L 203.351562 71 L 189 71 Z M 189 65 " clip-rule="nonzero"/></clipPath><clipPath id="427ee2cff7"><path d="M 105 56.011719 L 110 56.011719 L 110 62 L 105 62 Z M 105 56.011719 " clip-rule="nonzero"/></clipPath></defs><path fill="#f8f3f0" d="M 105.980469 62.148438 L 106.183594 60.941406 L 109.617188 58.75 L 110.105469 57.828125 L 111.574219 57.179688 L 116.617188 58.449219 L 119.257812 58.613281 L 120.214844 58.804688 L 123.570312 60.046875 L 125.796875 59.980469 L 128.738281 60.511719 L 134.421875 65.3125 L 119.929688 67.144531 L 104.554688 70.910156 L 104.011719 69.277344 L 104.878906 66.9375 L 106.160156 65.023438 L 105.726562 63.878906 L 105.90625 62.429688 Z M 105.980469 62.148438 " fill-opacity="1" fill-rule="nonzero"/><g clip-path="url(#b1e5a168c0)"><path fill="#2c5077" d="M 103.082031 89.101562 C 102.851562 88.4375 102.347656 87.808594 102.832031 87.054688 C 102.972656 86.835938 102.832031 86.683594 102.699219 86.539062 C 102.367188 86.171875 102.210938 85.742188 102.257812 85.238281 C 102.3125 84.660156 101.96875 84.230469 101.679688 83.792969 C 101.414062 83.402344 101.28125 83.019531 101.390625 82.523438 C 101.480469 82.109375 101.507812 81.636719 101.40625 81.230469 C 101.230469 80.542969 101.558594 80.203125 102.089844 79.929688 C 102.15625 79.902344 102.210938 79.847656 102.28125 79.796875 C 102.226562 79.753906 102.203125 79.726562 102.179688 79.71875 C 101.878906 79.640625 101.429688 79.960938 101.269531 79.570312 C 101.027344 78.96875 100.875 78.304688 101.296875 77.699219 C 101.691406 77.125 102.082031 76.5625 102.144531 75.84375 C 102.402344 75.488281 102.640625 75.765625 102.84375 75.890625 C 103.148438 76.078125 103.453125 76.285156 103.382812 76.726562 C 103.347656 76.957031 103.21875 77.167969 103.207031 77.464844 C 103.5625 77.34375 103.726562 76.867188 104.148438 76.957031 C 104.523438 77.042969 104.796875 77.3125 105.09375 77.554688 C 104.667969 76.460938 104.667969 76.460938 105.828125 75.609375 C 104.863281 75.730469 104.121094 75.613281 104.1875 74.375 C 104.035156 74.640625 104.011719 74.808594 103.957031 74.960938 C 103.738281 75.566406 103.152344 75.820312 102.542969 75.578125 C 102.363281 75.503906 102.324219 75.382812 102.320312 75.210938 C 102.3125 75.015625 102.375 74.816406 102.265625 74.628906 C 102.003906 73.625 102.234375 72.75 102.828125 71.902344 C 103.273438 71.261719 103.558594 70.511719 103.8125 69.761719 C 104.054688 69.042969 104.144531 69.023438 104.722656 69.484375 C 104.875 69.605469 105.027344 69.726562 105.238281 69.902344 C 105.273438 69.515625 105.117188 69.246094 105.007812 68.976562 C 104.875 68.636719 104.894531 68.394531 105.265625 68.214844 C 105.570312 68.0625 105.835938 67.828125 106.222656 67.554688 C 105.757812 67.554688 105.429688 67.542969 105.105469 67.5625 C 104.757812 67.578125 104.71875 67.457031 104.820312 67.136719 C 105.066406 66.371094 105.441406 65.644531 105.59375 64.847656 C 105.640625 64.597656 105.695312 64.34375 105.703125 64.089844 C 105.707031 63.8125 105.804688 63.679688 106.09375 63.722656 C 106.179688 63.777344 106.277344 63.800781 106.359375 63.847656 C 107.371094 64.445312 107.371094 64.445312 107.050781 65.609375 C 107.386719 65.476562 107.585938 65.117188 107.9375 65.101562 C 108.3125 65.074219 108.523438 65.390625 108.933594 65.710938 C 108.421875 64.769531 108.699219 64.207031 109.542969 63.820312 C 108.824219 63.769531 107.996094 63.945312 108.039062 62.707031 C 107.691406 63.105469 107.742188 63.632812 107.296875 63.722656 C 106.910156 63.792969 106.519531 63.824219 106.125 63.714844 C 106.277344 63.304688 106.757812 63.46875 107.007812 63.183594 C 106.890625 62.9375 106.625 63.054688 106.445312 62.972656 C 106.257812 62.886719 105.984375 62.929688 105.933594 62.652344 C 105.878906 62.359375 105.957031 62.101562 106.171875 61.894531 C 106.570312 61.519531 107.863281 61.34375 108.371094 61.585938 C 109.320312 62.035156 110.105469 61.546875 110.09375 60.503906 C 110.09375 60.292969 110.09375 60.082031 110.09375 59.871094 C 111.476562 60.207031 110.792969 61.105469 110.625 61.882812 C 110.878906 61.871094 110.96875 61.707031 111.097656 61.613281 C 111.847656 61.019531 111.847656 61.019531 112.570312 61.625 C 112.660156 61.695312 112.753906 61.769531 112.867188 61.859375 C 113.011719 61.558594 112.855469 61.320312 112.769531 61.117188 C 112.589844 60.679688 112.636719 60.378906 113.089844 60.15625 C 113.34375 60.027344 113.5625 59.835938 113.796875 59.671875 C 113.753906 59.617188 113.742188 59.585938 113.738281 59.59375 C 112.691406 59.738281 111.863281 59.574219 111.972656 58.152344 C 111.699219 58.335938 111.6875 58.523438 111.628906 58.671875 C 111.300781 59.519531 111.308594 59.519531 110.339844 59.445312 C 110.347656 58.902344 110.714844 58.296875 110.117188 57.839844 C 110.089844 57.816406 110.113281 57.6875 110.136719 57.613281 C 110.335938 57.078125 110.414062 56.550781 110.015625 56.019531 C 111.140625 56.351562 112.269531 56.683594 113.394531 57.023438 C 115.234375 57.578125 117.089844 58.097656 118.976562 58.527344 C 119.199219 58.578125 119.441406 58.613281 119.3125 58.925781 C 119.210938 59.175781 119.367188 59.628906 118.828125 59.5625 C 118.460938 59.519531 118.09375 59.511719 117.644531 59.488281 C 117.808594 59.808594 118.0625 59.941406 118.28125 60.0625 C 118.757812 60.335938 118.949219 60.648438 118.65625 61.175781 C 118.546875 61.371094 118.535156 61.625 118.472656 61.851562 C 118.535156 61.867188 118.574219 61.890625 118.59375 61.871094 C 118.957031 61.613281 119.257812 61.085938 119.667969 61.128906 C 120.027344 61.15625 120.339844 61.605469 120.714844 61.902344 C 120.769531 61.359375 120.292969 60.921875 120.46875 60.5 C 120.640625 60.074219 121.257812 60.019531 121.566406 59.597656 C 121.203125 59.445312 120.851562 59.554688 120.515625 59.585938 C 120.21875 59.617188 120.042969 59.550781 119.964844 59.222656 C 119.875 58.855469 119.875 58.726562 120.328125 58.835938 C 122.085938 59.257812 123.855469 59.652344 125.644531 59.953125 C 125.703125 59.96875 125.757812 59.972656 125.820312 59.992188 C 126.675781 60.261719 126.761719 60.425781 126.515625 61.292969 C 126.460938 61.480469 126.410156 61.664062 126.363281 61.867188 C 126.417969 61.867188 126.460938 61.882812 126.476562 61.871094 C 126.839844 61.597656 127.195312 61.109375 127.554688 61.117188 C 127.902344 61.121094 128.246094 61.628906 128.640625 61.945312 C 128.671875 61.546875 128.527344 61.238281 128.421875 60.933594 C 128.300781 60.578125 128.394531 60.460938 128.761719 60.523438 C 129.636719 60.667969 130.511719 60.808594 131.390625 60.933594 C 134.082031 61.328125 136.785156 61.636719 139.492188 61.851562 C 140.101562 61.902344 140.710938 61.9375 141.320312 61.980469 C 141.519531 62.179688 141.539062 62.433594 141.539062 62.695312 C 141.539062 63.636719 141.554688 64.582031 141.527344 65.523438 C 141.550781 67.257812 141.554688 68.992188 141.527344 70.730469 C 141.550781 72.070312 141.550781 73.417969 141.527344 74.761719 C 141.550781 76.484375 141.550781 78.207031 141.527344 79.9375 C 141.648438 81.308594 141.484375 82.675781 141.527344 84.046875 C 141.5625 85.523438 141.539062 86.992188 141.539062 88.46875 C 141.539062 88.703125 141.53125 88.945312 141.375 89.140625 C 141.117188 89.328125 140.8125 89.296875 140.515625 89.296875 C 128.351562 89.300781 116.183594 89.296875 104.015625 89.296875 C 103.671875 89.289062 103.359375 89.277344 103.082031 89.101562 Z M 103.082031 89.101562 " fill-opacity="1" fill-rule="nonzero"/></g><path fill="#bf3245" d="M 107.238281 98.425781 C 106.488281 97.898438 105.902344 97.058594 104.820312 97.15625 C 104.558594 97.179688 104.46875 97 104.464844 96.789062 C 104.457031 96.59375 104.453125 96.382812 104.519531 96.207031 C 104.757812 95.585938 104.667969 95.023438 104.332031 94.460938 C 104.121094 94.109375 103.957031 93.726562 103.769531 93.359375 C 103.839844 93.082031 104.082031 93.09375 104.289062 93.070312 C 104.558594 93.039062 104.839844 93.050781 105.117188 93.050781 C 118.238281 93.050781 131.359375 93.074219 144.480469 93.027344 C 146.765625 93.015625 149.054688 93.167969 151.332031 93.027344 C 153.71875 92.886719 156.105469 92.898438 158.488281 92.949219 C 170.386719 93.191406 182.28125 92.980469 194.175781 93.050781 C 194.53125 93.050781 194.886719 93.039062 195.214844 93.226562 C 195.449219 93.511719 195.457031 93.742188 195.160156 94.019531 C 194.980469 94.1875 194.804688 94.429688 194.863281 94.742188 C 195.101562 94.773438 195.273438 94.675781 195.433594 94.574219 C 195.824219 94.316406 196.097656 94.4375 196.289062 94.816406 C 196.488281 95.203125 196.339844 95.789062 195.976562 95.910156 C 195.746094 95.988281 195.613281 96.09375 195.554688 96.335938 C 195.433594 96.78125 195.148438 96.871094 194.742188 96.65625 C 194.5625 96.558594 194.351562 96.335938 194.175781 96.589844 C 194.011719 96.824219 194.144531 97.082031 194.3125 97.289062 C 194.519531 97.542969 194.796875 97.609375 195.105469 97.566406 C 195.238281 97.550781 195.40625 97.457031 195.488281 97.597656 C 195.566406 97.738281 195.449219 97.894531 195.371094 98.027344 C 195.246094 98.234375 195.070312 98.390625 194.847656 98.480469 C 194.234375 98.667969 193.601562 98.65625 192.972656 98.65625 C 164.949219 98.65625 136.929688 98.65625 108.902344 98.65625 C 108.335938 98.648438 107.773438 98.636719 107.238281 98.425781 Z M 107.238281 98.425781 " fill-opacity="1" fill-rule="nonzero"/><path fill="#be3245" d="M 190.839844 102.839844 C 190.453125 103.261719 190.382812 103.832031 190.152344 104.328125 C 189.886719 104.90625 189.597656 105.492188 189.050781 105.828125 C 188.449219 106.203125 188.132812 106.824219 187.625 107.273438 C 187.441406 107.441406 187.414062 107.683594 187.371094 107.917969 C 187.179688 108.082031 186.949219 108.125 186.707031 108.128906 C 186.429688 108.136719 186.160156 108.136719 185.878906 108.136719 C 164.960938 108.136719 144.046875 108.136719 123.125 108.136719 C 122.199219 108.136719 121.269531 108.195312 120.363281 107.96875 C 118.992188 107.277344 117.6875 106.484375 116.371094 105.699219 C 115.6875 105.289062 116.492188 105.105469 116.484375 104.75 C 114.722656 104.597656 112.953125 104.4375 111.179688 104.304688 C 110.5 104.25 110.492188 104.277344 110.6875 103.609375 C 110.769531 103.3125 110.742188 103.027344 110.65625 102.738281 C 110.820312 102.554688 111.042969 102.554688 111.261719 102.542969 C 111.460938 102.53125 111.652344 102.539062 111.851562 102.539062 C 137.9375 102.539062 164.03125 102.539062 190.117188 102.550781 C 190.363281 102.539062 190.796875 102.285156 190.839844 102.839844 Z M 190.839844 102.839844 " fill-opacity="1" fill-rule="nonzero"/><path fill="#fbeee9" d="M 195.207031 93.21875 C 191.890625 93.214844 188.582031 93.195312 185.265625 93.195312 C 176.898438 93.191406 168.53125 93.191406 160.167969 93.191406 C 141.605469 93.191406 123.035156 93.195312 104.46875 93.207031 C 104.234375 93.207031 103.949219 93.070312 103.769531 93.351562 C 103.679688 92.351562 103.242188 91.394531 103.320312 90.359375 C 103.351562 89.917969 103.253906 89.503906 103.085938 89.101562 C 110.125 89.097656 117.164062 89.089844 124.199219 89.085938 C 129.722656 89.085938 135.238281 89.085938 140.757812 89.089844 C 140.957031 89.089844 141.152344 89.078125 141.351562 89.074219 C 141.660156 88.832031 142.027344 88.902344 142.378906 88.902344 C 148.550781 88.898438 154.734375 88.902344 160.90625 88.898438 C 171.5625 88.890625 182.214844 88.910156 192.871094 88.890625 C 192.992188 88.890625 193.105469 88.886719 193.222656 88.855469 C 193.378906 89.339844 193.65625 89.761719 193.96875 90.15625 C 194.179688 90.414062 194.367188 90.652344 194.023438 90.953125 C 193.867188 91.09375 193.867188 91.335938 194.0625 91.394531 C 194.953125 91.691406 194.960938 92.523438 195.207031 93.21875 Z M 195.207031 93.21875 " fill-opacity="1" fill-rule="nonzero"/><path fill="#fbefe9" d="M 190.839844 102.839844 C 190.808594 102.574219 190.609375 102.6875 190.476562 102.6875 C 173.949219 102.6875 157.421875 102.695312 140.898438 102.699219 C 131.039062 102.699219 121.171875 102.699219 111.3125 102.707031 C 111.097656 102.707031 110.878906 102.726562 110.667969 102.730469 C 110.339844 102.015625 109.992188 101.335938 109.183594 101.019531 C 108.867188 100.898438 108.957031 100.488281 108.921875 100.222656 C 108.875 99.847656 108.699219 99.605469 108.4375 99.386719 C 108.046875 99.0625 107.636719 98.746094 107.230469 98.433594 C 107.441406 98.457031 107.660156 98.503906 107.871094 98.503906 C 136.425781 98.503906 164.984375 98.503906 193.542969 98.503906 C 193.976562 98.503906 194.410156 98.492188 194.839844 98.488281 C 194.066406 99.164062 193.226562 99.792969 192.925781 100.851562 C 192.871094 101.039062 192.792969 101.253906 192.605469 101.335938 C 191.847656 101.628906 191.355469 102.246094 190.839844 102.839844 Z M 190.839844 102.839844 " fill-opacity="1" fill-rule="nonzero"/><path fill="#bf3245" d="M 193.207031 88.855469 C 193.195312 89.230469 192.90625 89.089844 192.730469 89.089844 C 191.3125 89.101562 189.890625 89.089844 188.464844 89.089844 C 172.933594 89.089844 157.402344 89.089844 141.871094 89.085938 C 141.695312 89.085938 141.515625 89.074219 141.339844 89.066406 C 141.351562 87.375 141.355469 85.675781 141.371094 83.980469 C 141.636719 83.746094 141.960938 83.800781 142.277344 83.800781 C 144.367188 83.792969 146.457031 83.792969 148.550781 83.792969 C 164.058594 83.792969 179.574219 83.792969 195.082031 83.800781 C 195.480469 83.800781 195.921875 83.667969 196.253906 84.035156 C 196.222656 84.085938 196.179688 84.132812 196.164062 84.179688 C 196.011719 84.5625 195.96875 85.070312 195.691406 85.300781 C 195.394531 85.546875 194.996094 85.089844 194.617188 85.0625 C 194.5625 85.058594 194.5 85.070312 194.398438 85.070312 C 194.542969 85.652344 194.863281 86.117188 195.179688 86.574219 C 195.328125 86.800781 195.324219 86.894531 195.027344 86.960938 C 194.648438 87.046875 194.277344 87.191406 193.832031 87.335938 C 194.242188 87.628906 194.652344 87.753906 195.046875 87.859375 C 195.449219 87.960938 195.503906 88.164062 195.371094 88.5 C 195.351562 88.554688 195.347656 88.613281 195.324219 88.667969 C 195.191406 88.964844 195.195312 89.453125 194.851562 89.472656 C 194.566406 89.488281 194.464844 89 194.421875 88.734375 C 194.355469 88.339844 193.996094 88.371094 193.875 88.371094 C 193.226562 88.378906 193.179688 87.871094 193.09375 87.484375 C 192.980469 86.957031 192.984375 86.40625 192.9375 85.867188 C 192.847656 85.421875 193.425781 85.226562 193.328125 84.675781 C 193.015625 85.214844 192.507812 85.519531 192.375 86.105469 C 192.234375 86.460938 191.914062 86.789062 192.164062 87.230469 C 192.195312 87.28125 192.0625 87.421875 192.007812 87.523438 C 191.898438 88.195312 191.941406 88.269531 192.585938 88.503906 C 192.792969 88.636719 192.996094 88.746094 193.207031 88.855469 Z M 193.207031 88.855469 " fill-opacity="1" fill-rule="nonzero"/><path fill="#bf3245" d="M 184.65625 117.554688 C 184.382812 116.722656 183.886719 116.164062 182.957031 116.109375 C 182.757812 116.097656 182.613281 115.964844 182.539062 115.808594 C 182.242188 115.160156 181.621094 115.046875 181.046875 114.859375 C 180.5 114.683594 179.941406 114.972656 179.816406 115.511719 C 179.695312 116.015625 179.257812 115.949219 178.941406 116.085938 C 178.46875 116.292969 178.019531 116.445312 177.773438 115.734375 C 177.652344 115.386719 177.222656 115.320312 176.898438 115.179688 C 175.621094 114.625 174.359375 114.539062 173.074219 115.179688 C 172.359375 115.53125 172.347656 115.5 172.066406 114.757812 C 172.003906 114.59375 171.972656 114.40625 171.75 114.253906 C 171.691406 115.277344 171.011719 115.167969 170.277344 115.203125 C 169.527344 115.238281 168.699219 115.378906 168.300781 116.214844 C 168.222656 116.371094 168.089844 116.550781 168.308594 116.667969 C 168.480469 116.765625 168.609375 116.59375 168.652344 116.445312 C 168.742188 116.117188 168.921875 116.09375 169.175781 116.242188 C 169.46875 116.414062 169.230469 116.570312 169.152344 116.722656 C 169.132812 116.757812 169.105469 116.789062 169.085938 116.816406 C 168.609375 117.5625 168.640625 117.648438 169.480469 117.960938 C 169.585938 118.003906 169.707031 118.027344 169.8125 118.082031 C 169.972656 118.167969 170.292969 118.15625 170.136719 118.492188 C 170.003906 118.769531 169.835938 118.757812 169.570312 118.609375 C 169.050781 118.304688 168.445312 118.140625 168.035156 117.621094 C 167.722656 118.007812 168.222656 118.648438 167.515625 118.808594 C 167.484375 118.621094 167.667969 118.335938 167.328125 118.246094 C 167.109375 118.183594 166.960938 118.257812 166.796875 118.410156 C 166.222656 118.957031 166.214844 118.953125 165.496094 118.402344 C 165.578125 118.316406 165.660156 118.234375 165.734375 118.140625 C 165.921875 117.902344 165.914062 117.742188 165.550781 117.75 C 165.238281 117.753906 164.925781 117.742188 164.605469 117.75 C 164.308594 117.753906 164.070312 117.738281 164.023438 117.34375 C 163.980469 117.011719 163.738281 117.003906 163.613281 117.277344 C 163.390625 117.773438 163.007812 117.730469 162.578125 117.707031 C 161.96875 117.675781 161.371094 117.632812 160.792969 117.394531 C 160.339844 117.207031 159.867188 117.257812 159.402344 117.40625 C 159.101562 117.496094 158.792969 117.566406 158.488281 117.648438 C 158.21875 117.839844 157.902344 117.847656 157.582031 117.847656 C 153.492188 117.847656 149.398438 117.847656 145.308594 117.847656 C 144.988281 117.847656 144.679688 117.835938 144.402344 117.652344 C 144.367188 117.640625 144.3125 117.632812 144.292969 117.609375 C 143.785156 116.84375 142.929688 117.011719 142.203125 116.859375 C 141.53125 116.722656 140.902344 117.222656 140.644531 118.007812 C 140.457031 118.589844 139.894531 118.867188 139.359375 118.582031 C 138.480469 118.117188 137.582031 117.683594 136.921875 116.882812 C 136.632812 116.535156 136.457031 116.191406 136.457031 115.722656 C 136.457031 114.714844 136.070312 113.898438 135.136719 113.410156 C 134.554688 113.105469 134.203125 112.574219 133.824219 112.070312 C 133.882812 111.824219 134.097656 111.8125 134.289062 111.789062 C 134.480469 111.757812 134.683594 111.769531 134.882812 111.769531 C 151.765625 111.769531 168.644531 111.769531 185.53125 111.777344 C 185.929688 111.777344 186.375 111.65625 186.660156 112.097656 C 187.015625 114.15625 188.121094 115.808594 189.511719 117.300781 C 189.675781 117.808594 189.289062 117.816406 188.984375 117.828125 C 188.027344 117.863281 187.058594 117.839844 186.09375 117.847656 C 185.8125 117.847656 185.542969 117.851562 185.265625 117.839844 C 185.035156 117.820312 184.8125 117.773438 184.65625 117.554688 Z M 184.65625 117.554688 " fill-opacity="1" fill-rule="nonzero"/><path fill="#faeee8" d="M 186.671875 112.089844 C 186.429688 111.832031 186.117188 111.9375 185.832031 111.9375 C 170.292969 111.933594 154.757812 111.9375 139.21875 111.9375 C 137.625 111.9375 136.023438 111.933594 134.429688 111.945312 C 134.230469 111.945312 133.988281 111.835938 133.835938 112.070312 C 133.375 111.390625 132.886719 110.722656 132.46875 110.015625 C 132.222656 109.59375 131.8125 109.683594 131.480469 109.628906 C 130.765625 109.515625 130.035156 109.515625 129.3125 109.472656 C 128.992188 109.453125 128.753906 109.539062 128.773438 109.917969 C 128.796875 110.367188 128.53125 110.464844 128.167969 110.421875 C 127.238281 110.304688 126.300781 110.222656 125.378906 110.046875 C 124.011719 109.78125 122.648438 109.527344 121.46875 108.679688 C 121.113281 108.425781 120.8125 108.070312 120.363281 107.960938 C 126.859375 107.960938 133.347656 107.953125 139.839844 107.953125 C 155.453125 107.953125 171.054688 107.953125 186.667969 107.949219 C 186.902344 107.949219 187.136719 107.929688 187.371094 107.917969 C 186.714844 109.054688 186.660156 110.324219 186.585938 111.582031 C 186.582031 111.75 186.640625 111.921875 186.671875 112.089844 Z M 186.671875 112.089844 " fill-opacity="1" fill-rule="nonzero"/><path fill="#fbefe9" d="M 196.246094 84.042969 C 196.023438 83.925781 195.78125 83.976562 195.546875 83.976562 C 177.484375 83.976562 159.425781 83.980469 141.363281 83.988281 C 141.371094 82.640625 141.371094 81.292969 141.375 79.941406 C 141.488281 79.707031 141.707031 79.6875 141.925781 79.671875 C 142.203125 79.648438 142.476562 79.660156 142.753906 79.660156 C 151.066406 79.660156 159.382812 79.660156 167.695312 79.660156 C 167.949219 79.660156 168.210938 79.652344 168.457031 79.730469 C 168.785156 80.492188 168.765625 81.332031 169 82.113281 C 169.171875 82.671875 169.441406 83.097656 170.039062 83.148438 C 170.597656 83.195312 171.011719 82.863281 171.292969 82.417969 C 171.839844 81.535156 171.816406 80.558594 171.652344 79.582031 C 173.4375 79.753906 175.21875 79.621094 177 79.664062 C 177.308594 79.671875 177.632812 79.617188 177.902344 79.839844 C 177.632812 80.382812 177.375 80.929688 177.097656 81.460938 C 176.945312 81.757812 176.953125 81.945312 177.339844 81.980469 C 177.453125 81.992188 177.582031 82 177.683594 82.046875 C 179.191406 82.753906 180.292969 82.011719 181.378906 81.074219 C 181.875 80.644531 182.296875 80.113281 182.914062 79.835938 C 183.175781 79.664062 183.46875 79.660156 183.765625 79.660156 C 187.679688 79.652344 191.589844 79.664062 195.503906 79.652344 C 195.679688 79.652344 195.859375 79.640625 196.023438 79.730469 C 195.988281 80.171875 196.121094 80.265625 196.484375 79.980469 C 196.660156 79.839844 196.84375 79.675781 197.113281 79.742188 C 197.085938 80.035156 196.832031 80.105469 196.640625 80.226562 C 196.332031 80.425781 196.078125 80.65625 195.921875 80.988281 C 195.890625 81.320312 195.933594 81.625 196.089844 81.949219 C 196.421875 82.609375 196.242188 83.339844 196.246094 84.042969 Z M 196.246094 84.042969 " fill-opacity="1" fill-rule="nonzero"/><path fill="#be3245" d="M 168.464844 79.730469 C 168.3125 79.972656 168.070312 79.859375 167.871094 79.859375 C 159.234375 79.863281 150.589844 79.859375 141.949219 79.863281 C 141.761719 79.863281 141.550781 79.785156 141.386719 79.949219 C 141.316406 78.214844 141.308594 76.480469 141.382812 74.742188 C 141.609375 74.539062 141.894531 74.5625 142.167969 74.5625 C 150.527344 74.554688 158.890625 74.554688 167.253906 74.574219 C 167.769531 74.574219 168.296875 74.597656 168.796875 74.773438 C 168.6875 75.578125 168.574219 76.375 168.464844 77.179688 C 168.398438 77.664062 168.332031 78.148438 168.300781 78.636719 C 168.265625 79.007812 168.28125 79.386719 168.464844 79.730469 Z M 168.464844 79.730469 " fill-opacity="1" fill-rule="nonzero"/><path fill="#be3245" d="M 141.371094 70.703125 C 141.308594 68.96875 141.289062 67.242188 141.386719 65.503906 C 141.609375 65.289062 141.894531 65.316406 142.167969 65.316406 C 148.570312 65.324219 154.96875 65.292969 161.371094 65.328125 C 161.902344 65.328125 162.433594 65.289062 162.964844 65.324219 C 163.203125 65.34375 163.503906 65.277344 163.589844 65.621094 C 162.792969 65.953125 162.101562 66.394531 161.636719 67.167969 C 161.3125 67.710938 160.828125 68.128906 160.355469 68.550781 C 160.234375 68.660156 160.007812 68.765625 160.164062 68.976562 C 160.285156 69.144531 160.496094 69.078125 160.652344 69.011719 C 161.140625 68.800781 161.613281 68.558594 162.109375 68.359375 C 162.253906 68.296875 162.453125 68.148438 162.597656 68.316406 C 162.726562 68.46875 162.53125 68.59375 162.472656 68.734375 C 162.320312 69.078125 162.417969 69.265625 162.792969 69.296875 C 162.90625 69.308594 163.050781 69.339844 163.140625 69.285156 C 163.964844 68.792969 164.964844 68.636719 165.625 67.871094 C 165.9375 67.507812 166.289062 67.199219 166.675781 66.921875 C 166.90625 66.75 167.152344 66.636719 167.441406 66.855469 C 167.074219 67.308594 166.578125 67.632812 166.335938 68.164062 C 166.269531 68.316406 166.121094 68.503906 166.277344 68.65625 C 166.433594 68.820312 166.601562 68.648438 166.753906 68.578125 C 167.472656 68.207031 167.523438 68.21875 167.949219 68.835938 C 168.355469 69.421875 169.296875 69.609375 169.925781 69.109375 C 170.664062 68.515625 171.527344 68.40625 172.414062 68.21875 C 172.464844 68.492188 172.179688 68.792969 172.433594 68.992188 C 172.65625 69.167969 172.972656 69.121094 173.238281 69.066406 C 173.835938 68.945312 174.277344 69.023438 174.398438 69.738281 C 174.421875 69.894531 174.570312 70.035156 174.691406 70.226562 C 174.039062 70.25 173.4375 70.425781 172.808594 70.246094 C 172.433594 70.136719 172.089844 70.222656 171.730469 70.410156 C 171.296875 70.636719 170.878906 70.945312 170.324219 70.90625 C 170.132812 70.890625 170.1875 71.175781 170.101562 71.316406 C 169.339844 70.667969 168.398438 70.855469 167.523438 70.796875 C 166.003906 70.691406 164.496094 70.964844 162.972656 70.878906 C 160.234375 70.734375 157.492188 70.777344 154.75 70.777344 C 152.226562 70.777344 149.699219 70.765625 147.175781 70.785156 C 145.5625 70.796875 143.949219 70.964844 142.328125 70.898438 C 141.996094 70.898438 141.652344 70.941406 141.371094 70.703125 Z M 141.371094 70.703125 " fill-opacity="1" fill-rule="nonzero"/><path fill="#faeee8" d="M 141.371094 70.703125 C 143.023438 70.6875 144.679688 70.65625 146.335938 70.65625 C 152.492188 70.65625 158.640625 70.667969 164.796875 70.679688 C 166.234375 70.679688 167.679688 70.699219 169.117188 70.679688 C 169.617188 70.675781 170.054688 70.6875 170.09375 71.328125 C 169.828125 71.570312 169.515625 71.683594 169.160156 71.667969 C 168.894531 71.652344 168.710938 71.789062 168.699219 72.023438 C 168.65625 72.765625 168.296875 73.402344 168.054688 74.078125 C 167.992188 74.253906 167.847656 74.472656 168.09375 74.585938 C 168.308594 74.683594 168.375 74.449219 168.480469 74.308594 C 168.664062 74.078125 168.765625 73.757812 169.128906 73.617188 C 169.109375 74.074219 168.742188 74.363281 168.773438 74.769531 C 168.554688 74.753906 168.34375 74.730469 168.125 74.730469 C 159.203125 74.730469 150.28125 74.730469 141.355469 74.738281 C 141.375 73.394531 141.371094 72.046875 141.371094 70.703125 Z M 141.371094 70.703125 " fill-opacity="1" fill-rule="nonzero"/><path fill="#bf3245" d="M 196.03125 79.730469 C 195.921875 79.835938 195.800781 79.863281 195.65625 79.863281 C 191.414062 79.851562 187.167969 79.847656 182.925781 79.835938 C 183.484375 79.046875 184.273438 78.46875 184.746094 77.597656 C 184.957031 77.210938 184.980469 77.003906 184.589844 76.8125 C 184.25 76.640625 184.28125 76.484375 184.550781 76.265625 C 185.066406 75.855469 185.621094 75.613281 186.296875 75.699219 C 187.265625 75.820312 188.085938 75.542969 188.695312 74.75 C 189.011719 74.617188 189.332031 74.554688 189.675781 74.554688 C 192.628906 74.5625 195.582031 74.554688 198.539062 74.5625 C 198.871094 74.5625 199.273438 74.464844 199.460938 74.902344 C 199.882812 75.332031 200.277344 75.789062 200.742188 76.175781 C 201.074219 76.453125 201.4375 76.074219 201.933594 76.03125 C 201.441406 76.507812 201.175781 77.070312 200.445312 76.882812 C 200.214844 76.824219 200.089844 77 199.96875 77.160156 C 199.757812 77.453125 199.613281 77.378906 199.472656 77.089844 C 199.351562 76.835938 199.269531 76.539062 198.988281 76.394531 C 198.949219 76.441406 198.898438 76.472656 198.90625 76.492188 C 199.085938 77.5 198.578125 77.984375 197.679688 78.335938 C 196.996094 78.589844 196.308594 78.957031 196.03125 79.730469 Z M 196.03125 79.730469 " fill-opacity="1" fill-rule="nonzero"/><path fill="#faeee9" d="M 163.589844 65.625 C 163.40625 65.390625 163.152344 65.511719 162.9375 65.511719 C 155.753906 65.503906 148.570312 65.503906 141.382812 65.503906 C 141.285156 64.328125 141.429688 63.140625 141.289062 61.960938 C 141.441406 62 141.597656 62.078125 141.742188 62.066406 C 142.910156 61.992188 144.058594 62.199219 145.21875 62.199219 C 147.796875 62.199219 150.371094 62.386719 152.957031 62.3125 C 153.210938 62.308594 153.457031 62.277344 153.71875 62.242188 C 154.078125 62.179688 154.363281 62.121094 154.386719 61.671875 C 154.394531 61.527344 154.503906 61.371094 154.703125 61.375 C 154.933594 61.382812 155 61.5625 155.035156 61.734375 C 155.09375 62.039062 155.078125 62.355469 155.136719 62.667969 C 155.222656 63.085938 155.453125 63.25 155.820312 63.257812 C 156.230469 63.261719 156.585938 63.363281 156.925781 63.601562 C 157.214844 63.804688 157.523438 63.746094 157.824219 63.617188 C 158.464844 63.351562 159.023438 63.511719 159.5 63.980469 C 160.023438 64.496094 160.796875 64.574219 161.328125 65.113281 C 161.546875 65.335938 161.921875 65.039062 162.191406 64.894531 C 162.585938 64.683594 163.417969 64.730469 163.722656 65.027344 C 164.019531 65.292969 163.832031 65.46875 163.589844 65.625 Z M 163.589844 65.625 " fill-opacity="1" fill-rule="nonzero"/><path fill="#be3346" d="M 113.15625 117.628906 C 113.339844 117.152344 112.941406 116.816406 112.84375 116.414062 C 112.867188 116.394531 112.886719 116.375 112.902344 116.375 C 113.378906 116.335938 113.863281 115.964844 114.257812 116.070312 C 114.589844 116.152344 114.824219 116.683594 115.203125 116.914062 C 115.375 117.019531 115.511719 117.167969 115.710938 117.199219 C 115.964844 117.234375 116.273438 117.296875 116.402344 117.023438 C 116.535156 116.734375 116.195312 116.691406 116.03125 116.59375 C 115.390625 116.21875 115.964844 115.910156 116.125 115.5 C 114.847656 115.628906 115.121094 114.410156 114.632812 113.832031 C 114.480469 113.65625 114.722656 113.625 114.84375 113.609375 C 115.523438 113.511719 116.109375 113.335938 116.613281 112.742188 C 117.214844 112.023438 118.097656 111.757812 119.070312 111.855469 C 119.640625 111.910156 120.214844 111.855469 120.785156 111.855469 C 121.257812 111.855469 121.566406 112.019531 121.535156 112.574219 C 121.511719 113.0625 121.832031 112.773438 121.941406 112.6875 C 122.351562 112.363281 122.574219 112.5625 122.917969 112.851562 C 123.679688 113.488281 124.636719 113.800781 125.597656 113.941406 C 126.285156 114.035156 126.464844 114.296875 126.421875 114.949219 C 126.363281 115.875 126.398438 116.804688 126.394531 117.730469 C 126.195312 117.992188 125.902344 117.960938 125.632812 117.960938 C 122.851562 117.96875 120.074219 118.007812 117.296875 117.941406 C 116.152344 117.914062 115.011719 117.859375 113.871094 117.847656 C 113.609375 117.839844 113.355469 117.820312 113.15625 117.628906 Z M 113.15625 117.628906 " fill-opacity="1" fill-rule="nonzero"/><g clip-path="url(#9da90ae655)"><path fill="#be3346" d="M 126.398438 121.925781 C 126.398438 122.285156 126.382812 122.640625 126.40625 122.992188 C 126.441406 123.570312 126.398438 124.128906 126.074219 124.640625 C 125.996094 124.761719 125.867188 124.933594 126 125.070312 C 126.117188 125.191406 126.300781 125.136719 126.453125 125.101562 C 126.605469 125.066406 126.742188 124.980469 126.886719 124.921875 C 127.125 124.816406 127.273438 124.851562 127.246094 125.15625 C 127.207031 125.5625 127.382812 125.785156 127.792969 125.851562 C 127.898438 125.871094 128.035156 125.953125 128.078125 126.042969 C 128.441406 126.789062 128.765625 126.425781 129.070312 126.015625 C 129.414062 125.546875 129.671875 125.585938 130.066406 126.003906 C 130.6875 126.667969 131.324219 127.308594 131.714844 128.148438 C 131.910156 128.566406 132.257812 128.832031 132.699219 128.929688 C 133.109375 129.019531 133.21875 129.226562 133.097656 129.601562 C 133.0625 129.714844 133.070312 129.835938 133.019531 129.945312 C 132.910156 130.210938 132.898438 130.542969 132.566406 130.65625 C 132.164062 130.804688 132.199219 130.363281 132.011719 130.222656 C 131.683594 129.980469 131.613281 129.503906 131.160156 129.308594 C 131.003906 129.800781 131.351562 130.214844 131.335938 130.664062 C 131.28125 130.664062 131.257812 130.667969 131.246094 130.664062 C 130.84375 130.324219 130.640625 129.839844 130.21875 129.480469 C 129.722656 129.042969 129.257812 128.425781 128.882812 127.808594 C 128.144531 126.601562 127.058594 125.875 125.730469 125.46875 C 124.992188 125.246094 124.25 125.039062 123.800781 124.316406 C 123.6875 124.132812 123.445312 124.085938 123.226562 124.050781 C 122.992188 124.011719 122.761719 123.953125 122.613281 123.742188 C 122.441406 123.503906 122.226562 123.355469 121.964844 123.566406 C 121.722656 123.765625 121.378906 123.972656 121.519531 124.363281 C 121.566406 124.507812 121.621094 124.597656 121.453125 124.585938 C 120.917969 124.550781 120.652344 124.957031 120.296875 125.222656 C 120.152344 125.332031 120.027344 125.566406 119.796875 125.378906 C 119.5625 125.191406 119.800781 125.054688 119.863281 124.878906 C 120.042969 124.316406 120.347656 123.835938 120.746094 123.402344 C 120.839844 123.300781 120.96875 123.117188 120.824219 122.984375 C 120.683594 122.859375 120.539062 123.015625 120.398438 123.074219 C 119.742188 123.371094 119.320312 123.972656 118.734375 124.359375 C 118.695312 124.382812 118.65625 124.480469 118.667969 124.496094 C 119.082031 124.972656 118.523438 125.125 118.351562 125.386719 C 118.21875 125.589844 117.972656 125.710938 117.960938 126.015625 C 117.953125 126.171875 117.828125 126.324219 117.664062 126.347656 C 116.914062 126.457031 116.390625 127.152344 115.597656 127.132812 C 115.5625 127.132812 115.488281 127.15625 115.488281 127.167969 C 115.488281 127.683594 115.179688 127.683594 114.765625 127.703125 C 114.433594 127.714844 114.140625 128.035156 113.761719 128.023438 C 113.683594 128.023438 113.265625 127.984375 113.574219 128.328125 C 113.730469 128.5 113.511719 128.523438 113.429688 128.515625 C 112.59375 128.425781 111.761719 128.757812 110.929688 128.515625 C 110.476562 128.382812 110.027344 128.46875 109.59375 128.613281 C 109.210938 128.742188 108.867188 128.753906 108.554688 128.367188 C 109.03125 128.234375 109.484375 128.191406 109.917969 128.101562 C 110.726562 127.929688 111.554688 128.007812 112.339844 127.773438 C 113.242188 127.5 114.152344 127.300781 115.011719 126.886719 C 115.585938 126.605469 115.949219 126.183594 116.242188 125.664062 C 116.417969 125.363281 116.335938 125.1875 115.996094 125.113281 C 115.742188 125.058594 115.488281 125.066406 115.34375 124.71875 C 115.265625 124.527344 114.882812 124.617188 114.644531 124.707031 C 113.984375 124.957031 113.960938 124.921875 113.808594 124.25 C 113.710938 123.808594 113.277344 123.476562 113.351562 122.953125 C 113.355469 122.925781 113.191406 122.835938 113.109375 122.835938 C 112.503906 122.839844 112.300781 122.453125 112.207031 121.945312 C 112.40625 121.691406 112.699219 121.722656 112.96875 121.722656 C 117.1875 121.714844 121.398438 121.714844 125.613281 121.722656 C 125.898438 121.726562 126.183594 121.714844 126.398438 121.925781 Z M 126.398438 121.925781 " fill-opacity="1" fill-rule="nonzero"/></g><path fill="#fbefe9" d="M 126.398438 121.925781 C 125.179688 121.921875 123.957031 121.910156 122.738281 121.910156 C 119.488281 121.910156 116.238281 121.914062 112.980469 121.921875 C 112.726562 121.921875 112.46875 121.945312 112.214844 121.957031 C 111.917969 121.175781 112.105469 120.664062 112.757812 120.398438 C 113.089844 120.265625 113.378906 120.28125 113.609375 120.5625 C 113.917969 120.9375 114.179688 120.886719 114.472656 120.546875 C 114.582031 120.421875 114.765625 120.34375 114.921875 120.265625 C 115.234375 120.105469 115.320312 119.847656 115.269531 119.527344 C 115.21875 119.199219 114.992188 119.105469 114.679688 119.074219 C 114.074219 119.011719 113.21875 118.179688 113.15625 117.628906 C 113.289062 117.652344 113.421875 117.699219 113.5625 117.699219 C 117.839844 117.714844 122.117188 117.726562 126.394531 117.738281 C 126.394531 119.128906 126.398438 120.53125 126.398438 121.925781 Z M 126.398438 121.925781 " fill-opacity="1" fill-rule="nonzero"/><path fill="#fbefe9" d="M 144.40625 117.652344 C 145.527344 117.640625 146.648438 117.621094 147.765625 117.617188 C 151.089844 117.609375 154.414062 117.609375 157.734375 117.609375 C 157.988281 117.609375 158.242188 117.632812 158.496094 117.648438 C 157.996094 118.136719 157.4375 118.582031 156.996094 119.117188 C 156.238281 120.027344 155.292969 120.707031 154.359375 121.40625 C 154.128906 121.578125 153.945312 121.820312 153.746094 122.03125 C 151.386719 122.152344 149.023438 122.140625 146.660156 122.035156 C 146.207031 121.304688 145.882812 120.519531 145.59375 119.714844 C 145.3125 118.953125 145 118.226562 144.40625 117.652344 Z M 144.40625 117.652344 " fill-opacity="1" fill-rule="nonzero"/><path fill="#faeee8" d="M 199.449219 74.90625 C 199.308594 74.726562 199.109375 74.738281 198.917969 74.738281 C 195.511719 74.742188 192.101562 74.75 188.691406 74.75 C 189.300781 74.097656 189.324219 73.546875 188.746094 72.855469 C 188.585938 72.667969 188.519531 72.488281 188.636719 72.265625 C 188.925781 71.707031 189.222656 71.160156 189.511719 70.601562 C 189.703125 70.570312 189.898438 70.53125 190.097656 70.535156 C 192.828125 70.621094 195.558594 70.335938 198.296875 70.425781 C 198.761719 70.4375 199.191406 70.378906 199.570312 70.101562 C 199.644531 70.703125 199.382812 71.25 199.238281 71.8125 C 199.070312 72.464844 198.917969 73.074219 199.472656 73.660156 C 199.804688 74.023438 199.371094 74.484375 199.449219 74.90625 Z M 199.449219 74.90625 " fill-opacity="1" fill-rule="nonzero"/><g clip-path="url(#e4951d2a2a)"><path fill="#bd3345" d="M 199.5625 70.101562 C 199.550781 70.535156 199.335938 70.65625 198.894531 70.65625 C 195.933594 70.644531 192.980469 70.675781 190.019531 70.679688 C 189.851562 70.679688 189.664062 70.742188 189.511719 70.601562 C 189.929688 69.902344 190.542969 69.5 191.324219 69.285156 C 192.671875 68.910156 194.007812 68.5 195.339844 68.105469 C 195.601562 68.027344 195.847656 67.960938 195.757812 67.601562 C 195.726562 67.476562 195.738281 67.34375 195.867188 67.300781 C 196.566406 67.09375 196.609375 66.496094 196.675781 65.929688 C 196.710938 65.578125 196.851562 65.476562 197.195312 65.480469 C 198.511719 65.503906 199.835938 65.5 201.152344 65.492188 C 201.441406 65.492188 201.628906 65.558594 201.726562 65.867188 C 201.824219 66.1875 202.046875 66.328125 202.410156 66.253906 C 202.699219 66.199219 203.0625 66.054688 203.214844 66.492188 C 203.351562 66.890625 203.152344 67.070312 202.789062 67.246094 C 202.519531 67.375 202.367188 67.707031 201.96875 67.652344 C 201.804688 67.628906 201.75 67.894531 201.714844 68.070312 C 201.613281 68.535156 201.4375 68.867188 200.917969 68.351562 C 200.839844 68.96875 200.839844 69.539062 200.363281 69.996094 C 200.144531 69.726562 199.933594 69.460938 199.679688 69.144531 C 199.527344 69.496094 199.550781 69.796875 199.5625 70.101562 Z M 199.5625 70.101562 " fill-opacity="1" fill-rule="nonzero"/></g><path fill="#bf3246" d="M 177.914062 79.839844 C 175.972656 79.847656 174.035156 79.847656 172.09375 79.863281 C 171.859375 79.863281 171.730469 79.792969 171.660156 79.582031 C 171.652344 78.921875 171.296875 78.382812 171.0625 77.804688 C 170.917969 77.441406 170.707031 77.089844 170.996094 76.691406 C 171.054688 76.613281 171.050781 76.449219 171.011719 76.351562 C 170.820312 75.789062 170.933594 75.261719 171.164062 74.75 C 171.359375 74.585938 171.59375 74.566406 171.835938 74.566406 C 173.054688 74.5625 174.269531 74.550781 175.488281 74.574219 C 175.761719 74.582031 176.167969 74.484375 176.167969 74.984375 C 176.003906 75.316406 175.835938 75.652344 175.550781 75.910156 C 175.363281 76.078125 175.273438 76.316406 175.449219 76.546875 C 175.640625 76.792969 175.90625 76.738281 176.140625 76.613281 C 176.445312 76.441406 176.609375 76.140625 176.800781 75.867188 C 177.144531 75.378906 177.566406 75.378906 177.828125 75.929688 C 178.285156 76.921875 178.5 77.976562 178.503906 79.074219 C 178.503906 79.144531 178.46875 79.210938 178.449219 79.285156 C 177.804688 79.023438 178.105469 79.671875 177.914062 79.839844 Z M 177.914062 79.839844 " fill-opacity="1" fill-rule="nonzero"/><path fill="#c03245" d="M 146.660156 122.035156 C 146.660156 121.871094 146.757812 121.867188 146.898438 121.867188 C 149.132812 121.867188 151.367188 121.867188 153.597656 121.855469 C 153.746094 121.855469 153.746094 121.925781 153.746094 122.03125 C 153.523438 122.230469 153.1875 122.320312 153.148438 122.707031 C 153.132812 122.886719 152.960938 122.875 152.824219 122.882812 C 152.59375 122.894531 152.535156 123.023438 152.671875 123.183594 C 152.847656 123.390625 152.800781 123.582031 152.703125 123.785156 C 152.28125 124.628906 152.4375 125.46875 152.734375 126.304688 C 152.878906 126.710938 153.027344 127.121094 153.160156 127.53125 C 153.222656 127.714844 153.179688 127.875 153.003906 127.996094 C 152.8125 128.136719 152.660156 128.046875 152.535156 127.917969 C 152.066406 127.464844 151.429688 127.453125 150.878906 127.234375 C 150.175781 126.957031 149.335938 126.78125 148.855469 126.175781 C 148.394531 125.597656 147.859375 124.988281 147.925781 124.132812 C 147.941406 123.910156 147.832031 123.710938 147.710938 123.53125 C 147.351562 123.039062 147.003906 122.539062 146.660156 122.035156 Z M 146.660156 122.035156 " fill-opacity="1" fill-rule="nonzero"/><path fill="#faefe8" d="M 184.65625 117.554688 C 186.160156 117.714844 187.667969 117.585938 189.179688 117.628906 C 189.238281 117.628906 189.300781 117.628906 189.355469 117.617188 C 189.554688 117.585938 189.511719 117.429688 189.519531 117.296875 C 189.730469 117.761719 189.613281 118.292969 189.832031 118.765625 C 190.261719 119.691406 190.664062 120.632812 191.316406 121.429688 C 191.433594 121.5625 191.511719 121.726562 191.523438 121.914062 C 191.316406 122.101562 191.058594 122.101562 190.796875 122.101562 C 189.421875 122.109375 188.042969 122.101562 186.667969 122.109375 C 186.363281 122.109375 186.082031 122.046875 185.808594 121.921875 C 185.441406 121.59375 185.253906 121.25 185.5625 120.761719 C 185.644531 120.621094 185.800781 120.398438 185.640625 120.222656 C 185.46875 120.046875 185.269531 120.1875 185.101562 120.277344 C 184.835938 120.414062 184.722656 120.308594 184.628906 120.054688 C 184.527344 119.769531 184.472656 119.464844 184.546875 119.1875 C 184.703125 118.644531 184.648438 118.101562 184.65625 117.554688 Z M 184.65625 117.554688 " fill-opacity="1" fill-rule="nonzero"/><path fill="#be3346" d="M 185.828125 121.921875 C 187.730469 121.859375 189.632812 121.871094 191.535156 121.914062 C 191.875 122.914062 191.855469 123.957031 191.742188 124.957031 C 191.667969 125.585938 191.601562 126.472656 190.5625 126.527344 C 190.304688 126.539062 190.054688 126.726562 189.796875 126.84375 C 189.613281 126.589844 189.679688 126.285156 189.644531 126.003906 C 189.585938 125.519531 189.402344 125.179688 188.835938 125.203125 C 188.4375 125.222656 188.164062 125.015625 188.039062 124.628906 C 188.03125 124.613281 188.019531 124.59375 188.007812 124.574219 C 187.730469 123.996094 187.035156 123.425781 188.0625 122.871094 C 187.824219 122.71875 187.65625 122.71875 187.558594 122.78125 C 186.695312 123.304688 186.359375 122.652344 185.964844 122.097656 C 185.917969 122.046875 185.867188 121.988281 185.828125 121.921875 Z M 185.828125 121.921875 " fill-opacity="1" fill-rule="nonzero"/><path fill="#be3344" d="M 201.617188 65.117188 C 200.070312 65.117188 198.53125 65.117188 196.984375 65.117188 C 196.730469 65.117188 196.644531 65.003906 196.628906 64.761719 C 196.539062 63.59375 196.816406 62.496094 197.214844 61.417969 C 197.285156 61.226562 197.4375 60.898438 197.703125 61.253906 C 197.933594 61.570312 198.085938 61.453125 198.308594 61.261719 C 199.09375 60.570312 199.390625 60.632812 199.859375 61.558594 C 200.148438 62.121094 200.308594 62.730469 200.453125 63.347656 C 200.621094 64.054688 200.734375 64.804688 201.714844 64.949219 C 201.683594 65.003906 201.648438 65.0625 201.617188 65.117188 Z M 201.617188 65.117188 " fill-opacity="1" fill-rule="nonzero"/><path fill="#faeee6" d="M 176.160156 74.984375 C 176.167969 74.660156 175.925781 74.742188 175.742188 74.738281 C 174.214844 74.738281 172.6875 74.738281 171.160156 74.742188 C 171.199219 74.574219 171.265625 74.40625 171.273438 74.234375 C 171.292969 73.789062 171.398438 73.535156 171.945312 73.667969 C 172.414062 73.78125 172.554688 73.414062 172.578125 73.03125 C 172.601562 72.644531 172.558594 72.253906 172.800781 71.90625 C 173.796875 72 174.800781 72.027344 175.796875 71.90625 C 176.117188 72.621094 176.546875 73.304688 176.382812 74.15625 C 176.328125 74.441406 176.335938 74.738281 176.160156 74.984375 Z M 176.160156 74.984375 " fill-opacity="1" fill-rule="nonzero"/><g clip-path="url(#427ee2cff7)"><path fill="#2e4e74" d="M 106.234375 56.640625 C 106.5 56.96875 106.777344 57.199219 107.132812 57.34375 C 108.023438 57.699219 108.710938 58.414062 109.617188 58.746094 C 109.78125 58.804688 109.71875 58.933594 109.675781 59.035156 C 109.585938 59.273438 109.476562 59.507812 109.386719 59.742188 C 108.921875 60.984375 108.789062 61.066406 107.484375 60.902344 C 107.242188 60.875 107.066406 60.945312 106.890625 61.089844 C 106.699219 61.261719 106.476562 61.226562 106.28125 61.117188 C 106.058594 60.988281 106.25 60.796875 106.269531 60.644531 C 106.292969 60.476562 106.378906 60.3125 106.453125 60.15625 C 106.554688 59.941406 106.589844 59.75 106.425781 59.550781 C 105.695312 58.644531 106.066406 57.644531 106.234375 56.640625 Z M 106.234375 56.640625 " fill-opacity="1" fill-rule="nonzero"/></g><path fill="#f7f1ec" d="M 102.253906 74.621094 C 102.269531 74.652344 102.308594 74.6875 102.3125 74.71875 C 102.347656 74.949219 102.320312 75.335938 102.421875 75.371094 C 102.722656 75.480469 103.074219 75.449219 103.40625 75.480469 C 103.625 75.5 103.640625 75.355469 103.691406 75.191406 C 103.800781 74.820312 103.9375 74.460938 104.070312 74.089844 C 104.214844 74.222656 104.234375 74.382812 104.277344 74.53125 C 104.566406 75.511719 104.574219 75.511719 105.59375 75.492188 C 105.746094 75.488281 105.902344 75.492188 106.210938 75.492188 C 105.824219 75.769531 105.550781 76.011719 105.238281 76.183594 C 104.917969 76.359375 104.839844 76.546875 105 76.882812 C 105.132812 77.160156 105.1875 77.46875 105.285156 77.777344 C 105.199219 77.777344 105.160156 77.789062 105.132812 77.777344 C 104.765625 77.535156 104.46875 77.003906 104.035156 77.082031 C 103.667969 77.148438 103.363281 77.578125 103.019531 77.855469 C 102.882812 77.585938 103.03125 77.398438 103.09375 77.203125 C 103.308594 76.460938 103.0625 75.953125 102.324219 75.710938 C 102.28125 75.699219 102.203125 75.789062 102.136719 75.832031 C 102.265625 75.4375 102.246094 75.027344 102.253906 74.621094 Z M 102.253906 74.621094 " fill-opacity="1" fill-rule="nonzero"/><path fill="#f8f4ef" d="M 106.113281 63.703125 C 106.132812 63.699219 106.148438 63.679688 106.167969 63.679688 C 107.066406 63.710938 107.828125 63.546875 107.808594 62.34375 C 108.128906 62.535156 108.160156 62.75 108.179688 62.953125 C 108.222656 63.511719 108.476562 63.757812 109.0625 63.644531 C 109.320312 63.589844 109.605469 63.636719 110.027344 63.636719 C 109.648438 63.910156 109.386719 64.125 109.097656 64.296875 C 108.742188 64.5 108.65625 64.738281 108.835938 65.113281 C 108.953125 65.355469 109 65.632812 109.109375 65.976562 C 108.734375 65.84375 108.554688 65.589844 108.335938 65.390625 C 108.105469 65.179688 107.917969 65.082031 107.652344 65.367188 C 107.429688 65.601562 107.132812 65.769531 106.832031 65.996094 C 106.832031 65.878906 106.8125 65.8125 106.832031 65.769531 C 107.304688 64.902344 107.109375 64.265625 106.171875 63.890625 C 106.113281 63.867188 106.027344 63.8125 106.089844 63.714844 C 106.082031 63.714844 106.113281 63.703125 106.113281 63.703125 Z M 106.113281 63.703125 " fill-opacity="1" fill-rule="nonzero"/><path fill="#bb344a" d="M 175.796875 71.90625 C 175.796875 72.042969 175.753906 72.132812 175.597656 72.132812 C 174.742188 72.132812 173.882812 72.132812 173.019531 72.125 C 172.875 72.125 172.8125 72.035156 172.800781 71.90625 C 172.8125 71.894531 172.832031 71.878906 172.839844 71.867188 C 173.34375 70.796875 173.429688 70.769531 174.523438 71.304688 C 174.953125 71.507812 175.375 71.707031 175.796875 71.90625 Z M 175.796875 71.90625 " fill-opacity="1" fill-rule="nonzero"/><path fill="#ad344a" d="M 195.933594 80.984375 C 195.847656 80.570312 196.144531 80.402344 196.417969 80.222656 C 196.652344 80.058594 196.886719 79.902344 197.125 79.742188 C 197.523438 79.605469 197.816406 79.316406 198.164062 79.089844 C 198.34375 78.976562 198.554688 78.644531 198.738281 78.867188 C 198.894531 79.066406 198.5625 79.261719 198.398438 79.410156 C 197.679688 80.09375 196.863281 80.632812 195.933594 80.984375 Z M 195.933594 80.984375 " fill-opacity="1" fill-rule="nonzero"/><path fill="#ae3d4c" d="M 117.210938 128.292969 C 117.191406 128.070312 117.332031 127.914062 117.234375 127.671875 C 117.136719 127.421875 118.4375 126.445312 118.691406 126.546875 C 118.90625 126.636719 118.988281 126.777344 118.828125 127 C 118.636719 127.277344 118.417969 127.53125 118.105469 127.675781 C 117.777344 127.835938 117.453125 127.980469 117.210938 128.292969 Z M 117.210938 128.292969 " fill-opacity="1" fill-rule="nonzero"/><path fill="#fbeee9" d="M 192.375 86.128906 C 192.429688 85.453125 192.960938 84.726562 193.609375 84.488281 C 193.546875 85.058594 193.257812 85.480469 192.9375 85.886719 C 192.503906 85.382812 192.542969 86.011719 192.375 86.128906 Z M 192.375 86.128906 " fill-opacity="1" fill-rule="nonzero"/><path fill="#b35564" d="M 105.558594 128.730469 C 106.132812 128.335938 106.703125 128.394531 107.277344 128.355469 C 106.976562 128.976562 106.585938 129.066406 105.558594 128.730469 Z M 105.558594 128.730469 " fill-opacity="1" fill-rule="nonzero"/><path fill="#aa5c65" d="M 122.71875 124.53125 C 122.664062 124.714844 122.585938 124.921875 122.398438 124.96875 C 122.210938 125.023438 122.199219 124.773438 122.199219 124.691406 C 122.207031 124.496094 122.351562 124.332031 122.53125 124.285156 C 122.660156 124.25 122.691406 124.417969 122.71875 124.53125 Z M 122.71875 124.53125 " fill-opacity="1" fill-rule="nonzero"/><path fill="#fbeee9" d="M 192.585938 88.527344 C 191.875 88.382812 191.753906 88.179688 192.007812 87.550781 C 191.890625 88.058594 192.210938 88.3125 192.585938 88.527344 Z M 192.585938 88.527344 " fill-opacity="1" fill-rule="nonzero"/><path fill="#f6f2ee" d="M 135.339844 74.089844 C 135.574219 74.394531 135.628906 74.75 135.695312 75.089844 C 135.769531 75.421875 135.90625 75.554688 136.253906 75.515625 C 136.597656 75.488281 136.953125 75.511719 137.449219 75.511719 C 137.0625 75.796875 136.789062 76.03125 136.476562 76.210938 C 136.179688 76.382812 136.09375 76.550781 136.253906 76.867188 C 136.390625 77.144531 136.488281 77.445312 136.492188 77.765625 C 136.453125 77.777344 136.410156 77.804688 136.386719 77.789062 C 136.015625 77.554688 135.75 77 135.304688 77.082031 C 134.929688 77.15625 134.621094 77.574219 134.257812 77.855469 C 134.1875 77.476562 134.367188 77.191406 134.46875 76.90625 C 134.597656 76.550781 134.554688 76.328125 134.210938 76.132812 C 133.925781 75.976562 133.679688 75.757812 133.261719 75.449219 C 133.589844 75.449219 133.734375 75.449219 133.878906 75.449219 C 134.886719 75.445312 134.886719 75.4375 135.195312 74.488281 C 135.238281 74.367188 135.285156 74.234375 135.339844 74.089844 Z M 135.339844 74.089844 " fill-opacity="1" fill-rule="nonzero"/><path fill="#f8f1ec" d="M 125.4375 67.578125 C 125.582031 67.53125 125.625 67.5 125.65625 67.507812 C 126.738281 67.722656 127.4375 67.414062 127.394531 66.285156 C 127.523438 66.160156 127.542969 66.171875 127.566406 66.226562 C 127.757812 66.648438 127.675781 67.28125 128.066406 67.496094 C 128.417969 67.683594 128.949219 67.535156 129.5 67.535156 C 129.257812 67.886719 128.949219 68.058594 128.664062 68.21875 C 128.332031 68.414062 128.230469 68.605469 128.40625 68.976562 C 128.53125 69.234375 128.582031 69.53125 128.671875 69.820312 C 128.59375 69.828125 128.542969 69.847656 128.53125 69.835938 C 127.800781 68.988281 127.089844 69.007812 126.394531 70.050781 C 126.375 69.992188 126.355469 69.925781 126.339844 69.863281 C 126.421875 69.574219 126.476562 69.265625 126.597656 68.992188 C 126.78125 68.589844 126.664062 68.351562 126.289062 68.152344 C 126.011719 68.003906 125.769531 67.804688 125.4375 67.578125 Z M 125.4375 67.578125 " fill-opacity="1" fill-rule="nonzero"/><path fill="#f8f3ee" d="M 137.425781 67.5625 C 137.085938 67.808594 136.863281 68.03125 136.589844 68.164062 C 136.144531 68.390625 136.078125 68.679688 136.28125 69.109375 C 136.390625 69.332031 136.433594 69.585938 136.519531 69.871094 C 136.132812 69.792969 135.972656 69.515625 135.761719 69.328125 C 135.492188 69.078125 135.261719 69 134.972656 69.300781 C 134.761719 69.527344 134.496094 69.703125 134.191406 69.949219 C 134.179688 69.566406 134.296875 69.285156 134.414062 69.019531 C 134.597656 68.617188 134.5 68.363281 134.125 68.152344 C 133.855469 68.003906 133.613281 67.808594 133.269531 67.566406 C 133.679688 67.441406 133.992188 67.488281 134.277344 67.550781 C 134.722656 67.640625 134.929688 67.480469 135.007812 67.054688 C 135.0625 66.75 135.175781 66.460938 135.273438 66.140625 C 135.339844 66.195312 135.371094 66.210938 135.382812 66.238281 C 135.605469 66.660156 135.46875 67.324219 135.925781 67.53125 C 136.320312 67.699219 136.84375 67.5625 137.425781 67.5625 Z M 137.425781 67.5625 " fill-opacity="1" fill-rule="nonzero"/><path fill="#f7f2ed" d="M 121.6875 75.488281 C 121.332031 75.742188 121.101562 75.953125 120.828125 76.09375 C 120.398438 76.316406 120.375 76.605469 120.550781 77.011719 C 120.660156 77.253906 120.792969 77.507812 120.726562 77.820312 C 120.265625 77.65625 120.0625 76.988281 119.589844 77.078125 C 119.199219 77.148438 118.871094 77.566406 118.492188 77.84375 C 118.417969 77.296875 119 76.847656 118.726562 76.414062 C 118.492188 76.042969 118.007812 75.824219 117.628906 75.535156 C 117.730469 75.390625 117.875 75.457031 118.003906 75.457031 C 119.109375 75.445312 119.109375 75.449219 119.445312 74.351562 C 119.476562 74.261719 119.53125 74.175781 119.601562 74.019531 C 119.71875 74.382812 119.851562 74.671875 119.898438 74.972656 C 119.964844 75.425781 120.207031 75.546875 120.625 75.492188 C 120.933594 75.457031 121.238281 75.488281 121.6875 75.488281 Z M 121.6875 75.488281 " fill-opacity="1" fill-rule="nonzero"/><path fill="#f9f2ed" d="M 120.726562 69.835938 C 120.25 69.675781 120.015625 69.054688 119.589844 69.121094 C 119.214844 69.179688 118.902344 69.605469 118.492188 69.917969 C 118.441406 69.515625 118.601562 69.21875 118.707031 68.933594 C 118.855469 68.570312 118.769531 68.363281 118.4375 68.175781 C 118.148438 68.019531 117.886719 67.808594 117.617188 67.621094 C 117.664062 67.566406 117.683594 67.519531 117.707031 67.511719 C 118.171875 67.445312 118.75 67.710938 119.078125 67.429688 C 119.359375 67.175781 119.378906 66.613281 119.542969 66.097656 C 119.789062 66.472656 119.855469 66.8125 119.929688 67.136719 C 120 67.46875 120.164062 67.578125 120.503906 67.546875 C 120.847656 67.511719 121.203125 67.542969 121.71875 67.542969 C 121.3125 67.828125 121.035156 68.070312 120.71875 68.226562 C 120.382812 68.402344 120.339844 68.601562 120.484375 68.925781 C 120.601562 69.199219 120.75 69.464844 120.726562 69.835938 Z M 120.726562 69.835938 " fill-opacity="1" fill-rule="nonzero"/><path fill="#f8f2ed" d="M 113.898438 75.609375 C 112.6875 75.996094 112.402344 76.734375 113.035156 77.886719 C 112.214844 76.828125 111.484375 76.921875 110.820312 77.851562 C 110.601562 77.710938 110.726562 77.597656 110.753906 77.507812 C 111.109375 76.28125 111.285156 76.527344 110.117188 75.742188 C 110.027344 75.679688 109.894531 75.65625 109.875 75.511719 C 110.015625 75.410156 110.179688 75.457031 110.324219 75.449219 C 111.34375 75.433594 111.34375 75.4375 111.652344 74.429688 C 111.6875 74.3125 111.726562 74.207031 111.773438 74.046875 C 112.035156 74.34375 112.050781 74.703125 112.125 75.015625 C 112.207031 75.398438 112.371094 75.546875 112.765625 75.503906 C 113.089844 75.46875 113.421875 75.5 113.753906 75.5 C 113.804688 75.53125 113.851562 75.566406 113.898438 75.609375 Z M 113.898438 75.609375 " fill-opacity="1" fill-rule="nonzero"/><path fill="#f8f2ef" d="M 130.273438 66.042969 C 130.953125 64.835938 130.550781 64.125 129.292969 63.710938 C 129.703125 63.515625 129.957031 63.558594 130.1875 63.605469 C 130.765625 63.734375 131.117188 63.589844 131.171875 62.9375 C 131.191406 62.710938 131.3125 62.496094 131.394531 62.257812 C 131.445312 62.292969 131.484375 62.308594 131.484375 62.324219 C 131.613281 63.523438 132.269531 63.945312 133.496094 63.535156 C 133.484375 63.589844 133.472656 63.648438 133.460938 63.703125 C 133.171875 63.914062 132.898438 64.15625 132.589844 64.328125 C 132.242188 64.515625 132.191406 64.738281 132.332031 65.082031 C 132.441406 65.347656 132.597656 65.613281 132.539062 65.929688 C 131.804688 65.238281 131.074219 64.953125 130.273438 66.042969 Z M 130.273438 66.042969 " fill-opacity="1" fill-rule="nonzero"/><path fill="#f7f2ee" d="M 123.523438 62.308594 C 123.699219 62.359375 123.667969 62.476562 123.699219 62.5625 C 124.050781 63.625 124.050781 63.625 125.179688 63.617188 C 125.292969 63.617188 125.402344 63.617188 125.703125 63.617188 C 125.3125 63.910156 125.078125 64.144531 124.792969 64.273438 C 124.328125 64.488281 124.289062 64.769531 124.484375 65.195312 C 124.585938 65.414062 124.71875 65.648438 124.660156 65.964844 C 124.558594 65.898438 124.476562 65.851562 124.40625 65.796875 C 123.542969 65.128906 123.542969 65.128906 122.714844 65.8125 C 122.640625 65.875 122.5625 65.921875 122.460938 65.996094 C 122.398438 65.734375 122.484375 65.523438 122.574219 65.347656 C 122.902344 64.726562 122.683594 64.34375 122.097656 64.066406 C 121.917969 63.976562 121.757812 63.832031 121.445312 63.601562 C 121.910156 63.601562 122.226562 63.558594 122.519531 63.613281 C 122.960938 63.691406 123.167969 63.550781 123.238281 63.105469 C 123.289062 62.828125 123.425781 62.574219 123.523438 62.308594 Z M 123.523438 62.308594 " fill-opacity="1" fill-rule="nonzero"/><path fill="#f8f1ed" d="M 125.582031 75.445312 C 125.722656 75.445312 125.855469 75.445312 125.996094 75.445312 C 127.0625 75.457031 127.0625 75.457031 127.359375 74.398438 C 127.390625 74.285156 127.414062 74.167969 127.554688 74.089844 C 127.613281 74.261719 127.675781 74.421875 127.722656 74.585938 C 128.011719 75.492188 128.011719 75.492188 128.980469 75.476562 C 129.128906 75.476562 129.273438 75.476562 129.414062 75.476562 C 129.425781 75.535156 129.4375 75.566406 129.433594 75.570312 C 128.609375 76.09375 127.875 76.640625 128.863281 77.820312 C 128.441406 77.75 128.3125 77.601562 128.175781 77.488281 C 127.492188 76.90625 127.5 76.90625 126.859375 77.511719 C 126.738281 77.628906 126.640625 77.789062 126.449219 77.804688 C 126.433594 77.765625 126.417969 77.75 126.417969 77.738281 C 126.902344 76.707031 126.648438 75.964844 125.4375 75.589844 C 125.488281 75.535156 125.535156 75.492188 125.582031 75.445312 Z M 125.582031 75.445312 " fill-opacity="1" fill-rule="nonzero"/><path fill="#f8f3f0" d="M 113.496094 63.683594 C 113.742188 63.617188 113.761719 63.613281 113.777344 63.605469 C 114.238281 63.539062 114.8125 63.804688 115.136719 63.511719 C 115.421875 63.25 115.453125 62.707031 115.609375 62.242188 C 115.84375 62.535156 115.910156 62.871094 115.972656 63.183594 C 116.050781 63.589844 116.242188 63.683594 116.625 63.644531 C 116.957031 63.605469 117.296875 63.636719 117.699219 63.636719 C 117.441406 63.964844 117.121094 64.144531 116.8125 64.320312 C 116.460938 64.519531 116.402344 64.730469 116.5625 65.082031 C 116.683594 65.34375 116.75 65.632812 116.847656 65.921875 C 116.761719 65.921875 116.726562 65.933594 116.695312 65.921875 C 116.296875 65.734375 116.09375 65.113281 115.621094 65.226562 C 115.246094 65.316406 114.953125 65.722656 114.503906 66 C 115.175781 64.839844 114.746094 64.140625 113.496094 63.683594 Z M 113.496094 63.683594 " fill-opacity="1" fill-rule="nonzero"/><path fill="#f8f2ee" d="M 133.382812 71.628906 C 133.175781 71.792969 133.003906 71.988281 132.785156 72.089844 C 132.253906 72.347656 132.167969 72.699219 132.429688 73.207031 C 132.511719 73.363281 132.621094 73.558594 132.53125 73.769531 C 132.089844 73.625 131.832031 73.027344 131.445312 73.070312 C 131.070312 73.109375 130.730469 73.558594 130.351562 73.84375 C 130.324219 73.726562 130.289062 73.660156 130.308594 73.625 C 130.875 72.652344 130.398438 72.089844 129.546875 71.667969 C 129.503906 71.648438 129.480469 71.582031 129.40625 71.492188 C 129.78125 71.4375 130.101562 71.460938 130.421875 71.519531 C 130.785156 71.585938 131.003906 71.519531 131.082031 71.097656 C 131.140625 70.757812 131.214844 70.402344 131.4375 70.082031 C 131.503906 70.289062 131.566406 70.476562 131.625 70.664062 C 131.914062 71.5625 131.914062 71.5625 132.894531 71.546875 C 133.042969 71.550781 133.207031 71.492188 133.382812 71.628906 Z M 133.382812 71.628906 " fill-opacity="1" fill-rule="nonzero"/><path fill="#f7f2ed" d="M 116.859375 82.011719 C 116.324219 81.824219 116.105469 81.152344 115.632812 81.261719 C 115.234375 81.359375 114.910156 81.769531 114.535156 82.054688 C 114.515625 81.992188 114.492188 81.945312 114.503906 81.925781 C 115.121094 80.878906 114.757812 80.179688 113.71875 79.660156 C 114.058594 79.660156 114.394531 79.617188 114.726562 79.671875 C 115.066406 79.726562 115.234375 79.671875 115.300781 79.300781 C 115.363281 78.980469 115.5 78.679688 115.617188 78.351562 C 115.683594 78.394531 115.71875 78.40625 115.730469 78.433594 C 115.9375 78.847656 115.84375 79.496094 116.257812 79.683594 C 116.636719 79.851562 117.175781 79.683594 117.71875 79.660156 C 117.511719 79.96875 117.253906 80.101562 117 80.226562 C 116.511719 80.46875 116.335938 80.785156 116.625 81.304688 C 116.734375 81.484375 116.769531 81.722656 116.859375 82.011719 Z M 116.859375 82.011719 " fill-opacity="1" fill-rule="nonzero"/><path fill="#f8f2ed" d="M 137.960938 82.035156 C 138.699219 80.921875 138.3125 80.195312 137.207031 79.761719 C 137.40625 79.570312 137.546875 79.628906 137.667969 79.636719 C 138.734375 79.683594 138.734375 79.683594 139.054688 78.648438 C 139.078125 78.578125 139.105469 78.5 139.140625 78.382812 C 139.449219 78.601562 139.464844 78.941406 139.515625 79.210938 C 139.59375 79.621094 139.761719 79.785156 140.183594 79.71875 C 140.492188 79.671875 140.8125 79.671875 141.199219 79.648438 C 141.050781 79.960938 140.796875 80.089844 140.585938 80.203125 C 140.027344 80.492188 139.960938 80.875 140.246094 81.394531 C 140.34375 81.574219 140.449219 81.769531 140.402344 82.015625 C 139.945312 81.835938 139.679688 81.21875 139.238281 81.28125 C 138.851562 81.328125 138.511719 81.761719 138.148438 82.027344 C 138.089844 82.027344 138.027344 82.035156 137.960938 82.035156 Z M 137.960938 82.035156 " fill-opacity="1" fill-rule="nonzero"/><path fill="#f9f3ef" d="M 109.835938 67.578125 C 110.96875 67.683594 111.761719 67.453125 111.683594 66.085938 C 111.804688 66.175781 111.851562 66.195312 111.851562 66.21875 C 111.984375 67.390625 112.605469 67.863281 113.863281 67.445312 C 113.84375 67.507812 113.820312 67.566406 113.804688 67.628906 C 113.539062 67.816406 113.289062 68.039062 113 68.175781 C 112.605469 68.371094 112.582031 68.625 112.726562 68.988281 C 112.832031 69.253906 112.980469 69.519531 112.976562 69.859375 C 112.855469 69.785156 112.746094 69.738281 112.660156 69.671875 C 111.847656 69.042969 111.851562 69.042969 111.023438 69.703125 C 110.941406 69.769531 110.835938 69.820312 110.644531 69.894531 C 111.375 68.753906 110.914062 68.0625 109.835938 67.578125 Z M 109.835938 67.578125 " fill-opacity="1" fill-rule="nonzero"/><path fill="#f9f4ef" d="M 106.679688 73.832031 C 107.386719 72.753906 107.105469 72.003906 105.839844 71.605469 C 105.890625 71.558594 105.933594 71.515625 105.980469 71.464844 C 106.199219 71.464844 106.4375 71.414062 106.636719 71.480469 C 107.339844 71.707031 107.5625 71.320312 107.683594 70.742188 C 107.726562 70.542969 107.796875 70.347656 107.863281 70.113281 C 108.125 70.414062 108.167969 70.757812 108.234375 71.074219 C 108.316406 71.460938 108.492188 71.59375 108.878906 71.550781 C 109.199219 71.515625 109.527344 71.546875 109.929688 71.585938 C 108.886719 72.058594 108.367188 72.707031 109.207031 73.84375 C 108.855469 73.804688 108.710938 73.65625 108.609375 73.527344 C 108.15625 72.964844 107.730469 73.03125 107.273438 73.523438 C 107.15625 73.65625 107.019531 73.824219 106.679688 73.832031 Z M 106.679688 73.832031 " fill-opacity="1" fill-rule="nonzero"/><path fill="#f7f3ed" d="M 117.542969 83.644531 C 118.734375 83.824219 119.546875 83.660156 119.519531 82.296875 C 119.640625 82.410156 119.6875 82.433594 119.695312 82.464844 C 119.851562 83.589844 120.417969 84.078125 121.699219 83.546875 C 121.421875 84.0625 121.066406 84.207031 120.761719 84.375 C 120.40625 84.582031 120.375 84.792969 120.539062 85.125 C 120.652344 85.367188 120.769531 85.621094 120.773438 85.917969 C 120.515625 85.953125 120.363281 85.765625 120.242188 85.621094 C 119.832031 85.117188 119.46875 85.167969 119.070312 85.625 C 118.933594 85.785156 118.738281 85.894531 118.582031 86.019531 C 118.457031 85.953125 118.507812 85.878906 118.527344 85.8125 C 118.859375 84.640625 118.859375 84.640625 117.882812 83.933594 C 117.796875 83.875 117.730469 83.808594 117.542969 83.644531 Z M 117.542969 83.644531 " fill-opacity="1" fill-rule="nonzero"/><path fill="#f8f1ec" d="M 125.492188 71.550781 C 124.59375 72.089844 123.941406 72.652344 124.863281 73.824219 C 124.375 73.765625 124.210938 73.5 124.011719 73.324219 C 123.703125 73.058594 123.464844 73.015625 123.160156 73.339844 C 122.96875 73.546875 122.746094 73.757812 122.328125 73.902344 C 123.015625 72.773438 122.695312 72.027344 121.53125 71.582031 C 121.917969 71.449219 122.242188 71.460938 122.558594 71.527344 C 122.96875 71.617188 123.179688 71.480469 123.246094 71.054688 C 123.292969 70.765625 123.410156 70.488281 123.503906 70.167969 C 123.820312 70.425781 123.820312 70.800781 123.898438 71.117188 C 123.988281 71.472656 124.132812 71.613281 124.507812 71.5625 C 124.828125 71.519531 125.160156 71.550781 125.492188 71.550781 Z M 125.492188 71.550781 " fill-opacity="1" fill-rule="nonzero"/><path fill="#f8f3ee" d="M 109.816406 83.671875 C 109.941406 83.65625 109.960938 83.65625 109.980469 83.648438 C 110.4375 83.570312 111 83.898438 111.328125 83.601562 C 111.617188 83.335938 111.640625 82.785156 111.804688 82.308594 C 112.082031 82.640625 112.113281 83.019531 112.191406 83.367188 C 112.261719 83.679688 112.402344 83.792969 112.714844 83.738281 C 113.074219 83.679688 113.441406 83.644531 113.984375 83.722656 C 113.554688 84 113.285156 84.210938 112.980469 84.363281 C 112.644531 84.539062 112.601562 84.75 112.746094 85.078125 C 112.867188 85.34375 112.941406 85.625 113.074219 85.996094 C 112.671875 85.84375 112.445312 85.609375 112.214844 85.398438 C 111.953125 85.15625 111.78125 85.160156 111.53125 85.414062 C 111.320312 85.640625 111.042969 85.800781 110.8125 85.984375 C 110.660156 85.933594 110.734375 85.855469 110.753906 85.789062 C 111.054688 84.621094 111.054688 84.621094 110.039062 83.875 C 109.980469 83.84375 109.929688 83.789062 109.816406 83.671875 Z M 109.816406 83.671875 " fill-opacity="1" fill-rule="nonzero"/><path fill="#f6f2ee" d="M 121.613281 79.648438 C 121.996094 79.648438 122.34375 79.609375 122.679688 79.660156 C 123.023438 79.707031 123.179688 79.636719 123.234375 79.273438 C 123.28125 78.96875 123.425781 78.6875 123.523438 78.414062 C 123.636719 78.359375 123.644531 78.4375 123.667969 78.484375 C 123.875 78.878906 123.746094 79.496094 124.171875 79.675781 C 124.558594 79.839844 125.058594 79.714844 125.53125 79.714844 C 125.355469 79.996094 125.046875 80.179688 124.757812 80.347656 C 124.421875 80.542969 124.328125 80.730469 124.492188 81.097656 C 124.605469 81.359375 124.75 81.628906 124.726562 82 C 124.4375 81.914062 124.261719 81.707031 124.089844 81.519531 C 123.769531 81.164062 123.488281 81.171875 123.160156 81.503906 C 122.972656 81.695312 122.738281 81.839844 122.410156 81.960938 C 122.464844 81.773438 122.492188 81.570312 122.585938 81.398438 C 122.925781 80.785156 122.730469 80.398438 122.128906 80.113281 C 121.953125 80.015625 121.734375 79.9375 121.613281 79.648438 Z M 121.613281 79.648438 " fill-opacity="1" fill-rule="nonzero"/><path fill="#f8f2ef" d="M 131.402344 78.230469 C 131.492188 78.425781 131.535156 78.492188 131.558594 78.566406 C 132.03125 79.808594 132.03125 79.808594 133.4375 79.664062 C 133.296875 79.941406 133.050781 80.070312 132.839844 80.183594 C 132.289062 80.46875 132.125 80.832031 132.445312 81.386719 C 132.539062 81.550781 132.621094 81.746094 132.53125 81.976562 C 132.121094 81.773438 131.859375 81.183594 131.445312 81.25 C 131.058594 81.308594 130.726562 81.738281 130.34375 82.027344 C 130.289062 81.660156 130.421875 81.386719 130.542969 81.132812 C 130.738281 80.722656 130.609375 80.488281 130.242188 80.289062 C 129.96875 80.144531 129.726562 79.9375 129.378906 79.6875 C 129.792969 79.582031 130.121094 79.59375 130.421875 79.675781 C 130.886719 79.804688 131.0625 79.597656 131.148438 79.1875 C 131.203125 78.902344 131.292969 78.625 131.402344 78.230469 Z M 131.402344 78.230469 " fill-opacity="1" fill-rule="nonzero"/><path fill="#f7f2ee" d="M 137.171875 63.625 C 137.617188 63.625 137.945312 63.59375 138.265625 63.632812 C 138.652344 63.679688 138.84375 63.558594 138.910156 63.171875 C 138.957031 62.886719 139.066406 62.613281 139.160156 62.308594 C 139.472656 62.554688 139.484375 62.886719 139.519531 63.164062 C 139.574219 63.625 139.804688 63.691406 140.203125 63.660156 C 140.492188 63.636719 140.929688 63.425781 141.042969 63.734375 C 141.128906 63.964844 140.679688 64.144531 140.425781 64.273438 C 140.015625 64.476562 139.980469 64.738281 140.148438 65.125 C 140.25 65.367188 140.410156 65.613281 140.355469 65.953125 C 139.972656 65.6875 139.636719 65.261719 139.253906 65.222656 C 138.84375 65.171875 138.585938 65.753906 138.144531 65.957031 C 138.070312 65.582031 138.269531 65.292969 138.371094 64.996094 C 138.476562 64.695312 138.457031 64.496094 138.148438 64.320312 C 137.835938 64.140625 137.550781 63.898438 137.171875 63.625 Z M 137.171875 63.625 " fill-opacity="1" fill-rule="nonzero"/><path fill="#f8f2ed" d="M 136.453125 86.175781 C 135.722656 85.027344 135.03125 85.210938 134.347656 85.984375 C 134.332031 86 134.277344 85.984375 134.242188 85.984375 C 134.667969 84.949219 134.496094 84.15625 133.203125 83.808594 C 133.257812 83.765625 133.304688 83.726562 133.359375 83.6875 C 133.679688 83.6875 134.011719 83.625 134.308594 83.699219 C 134.75 83.808594 134.910156 83.644531 135 83.246094 C 135.0625 82.960938 135.183594 82.6875 135.296875 82.355469 C 135.527344 82.65625 135.574219 82.976562 135.640625 83.273438 C 135.726562 83.648438 135.894531 83.808594 136.289062 83.746094 C 136.609375 83.699219 136.933594 83.703125 137.308594 83.820312 C 137.042969 84.007812 136.800781 84.230469 136.511719 84.367188 C 136.113281 84.5625 136.089844 84.808594 136.257812 85.171875 C 136.367188 85.414062 136.5 85.667969 136.453125 86.175781 Z M 136.453125 86.175781 " fill-opacity="1" fill-rule="nonzero"/><path fill="#f8f2ec" d="M 129.523438 83.679688 C 129.484375 83.777344 129.484375 83.824219 129.457031 83.84375 C 129.101562 84.113281 128.597656 84.308594 128.410156 84.671875 C 128.21875 85.039062 128.683594 85.488281 128.671875 85.945312 C 128.5 85.984375 128.429688 85.839844 128.332031 85.765625 C 127.542969 85.199219 127.542969 85.191406 126.785156 85.777344 C 126.675781 85.863281 126.585938 85.972656 126.421875 85.976562 C 126.363281 85.6875 126.507812 85.4375 126.621094 85.199219 C 126.828125 84.75 126.707031 84.472656 126.285156 84.253906 C 126.03125 84.121094 125.757812 84 125.542969 83.691406 C 125.921875 83.59375 126.273438 83.625 126.605469 83.679688 C 126.96875 83.734375 127.148438 83.636719 127.222656 83.269531 C 127.28125 82.964844 127.394531 82.671875 127.511719 82.296875 C 127.59375 82.496094 127.65625 82.609375 127.699219 82.730469 C 128.046875 83.777344 128.046875 83.777344 129.128906 83.710938 C 129.246094 83.703125 129.359375 83.691406 129.523438 83.679688 Z M 129.523438 83.679688 " fill-opacity="1" fill-rule="nonzero"/><path fill="#f9f2ed" d="M 140.421875 73.867188 C 139.605469 72.90625 138.878906 72.984375 138.082031 73.898438 C 138.652344 72.765625 138.386719 72.035156 137.285156 71.683594 C 137.386719 71.449219 137.527344 71.503906 137.628906 71.503906 C 138.746094 71.480469 138.746094 71.480469 139.097656 70.367188 C 139.121094 70.292969 139.164062 70.226562 139.199219 70.160156 C 139.332031 70.144531 139.328125 70.25 139.332031 70.300781 C 139.449219 71.199219 139.769531 71.835938 140.855469 71.515625 C 140.910156 71.496094 141.011719 71.539062 141.054688 71.585938 C 141.117188 71.660156 141.0625 71.746094 140.988281 71.78125 C 140.070312 72.210938 139.839844 72.851562 140.421875 73.867188 Z M 140.421875 73.867188 " fill-opacity="1" fill-rule="nonzero"/><path fill="#f8f4ee" d="M 106.148438 83.648438 C 105.769531 84.132812 105.132812 84.21875 104.960938 84.640625 C 104.789062 85.050781 105.261719 85.488281 105.308594 85.960938 C 105.253906 85.964844 105.230469 85.976562 105.226562 85.972656 C 104.492188 85.148438 103.769531 85.058594 103.082031 86.03125 C 102.867188 85.785156 103.039062 85.636719 103.085938 85.492188 C 103.429688 84.542969 103.492188 84.6875 102.675781 84.140625 C 102.511719 84.03125 102.367188 83.902344 102.136719 83.726562 C 102.5 83.601562 102.796875 83.636719 103.0625 83.691406 C 103.535156 83.78125 103.738281 83.605469 103.8125 83.152344 C 103.855469 82.886719 103.972656 82.628906 104.078125 82.335938 C 104.367188 82.597656 104.402344 82.941406 104.453125 83.25 C 104.523438 83.726562 104.773438 83.820312 105.1875 83.746094 C 105.464844 83.6875 105.761719 83.679688 106.148438 83.648438 Z M 106.148438 83.648438 " fill-opacity="1" fill-rule="nonzero"/><path fill="#f9f4ef" d="M 113.710938 71.492188 C 114.207031 71.429688 114.792969 71.738281 115.109375 71.460938 C 115.410156 71.195312 115.441406 70.613281 115.640625 70.027344 C 115.777344 70.476562 115.90625 70.785156 115.960938 71.109375 C 116.019531 71.484375 116.207031 71.59375 116.5625 71.558594 C 116.890625 71.527344 117.230469 71.550781 117.5625 71.550781 C 117.554688 71.59375 117.566406 71.652344 117.550781 71.660156 C 116.648438 72.125 116.070312 72.707031 116.980469 73.886719 C 116.457031 73.703125 116.25 73.460938 116.039062 73.261719 C 115.785156 73.027344 115.617188 73.015625 115.363281 73.269531 C 115.152344 73.484375 114.871094 73.644531 114.617188 73.824219 C 114.492188 73.660156 114.566406 73.535156 114.601562 73.40625 C 114.882812 72.398438 114.882812 72.402344 114.039062 71.839844 C 113.925781 71.757812 113.742188 71.726562 113.710938 71.492188 Z M 113.710938 71.492188 " fill-opacity="1" fill-rule="nonzero"/><path fill="#f7f2ed" d="M 109.9375 79.75 C 109.671875 79.9375 109.421875 80.15625 109.140625 80.3125 C 108.765625 80.519531 108.648438 80.765625 108.851562 81.164062 C 108.964844 81.40625 109.019531 81.679688 109.097656 81.9375 C 109.023438 81.957031 108.96875 81.980469 108.957031 81.96875 C 108.222656 81.019531 107.503906 81.1875 106.757812 82.203125 C 106.789062 81.503906 107.277344 81.027344 107.085938 80.613281 C 106.910156 80.234375 106.386719 80.023438 106.015625 79.730469 C 106.011719 79.726562 106.015625 79.695312 106.015625 79.664062 C 106.105469 79.5625 106.226562 79.628906 106.335938 79.628906 C 107.449219 79.660156 107.449219 79.660156 107.804688 78.578125 C 107.828125 78.511719 107.847656 78.4375 107.878906 78.347656 C 108.105469 78.546875 108.160156 78.804688 108.191406 79.046875 C 108.269531 79.664062 108.609375 79.808594 109.164062 79.703125 C 109.398438 79.652344 109.652344 79.664062 109.894531 79.652344 C 109.90625 79.6875 109.917969 79.71875 109.9375 79.75 Z M 109.9375 79.75 " fill-opacity="1" fill-rule="nonzero"/><path fill="#f0f3f4" d="M 107.984375 58.921875 C 108.191406 59.210938 108.328125 59.398438 108.449219 59.59375 C 108.578125 59.792969 108.582031 59.996094 108.433594 60.195312 C 108.328125 60.328125 108.179688 60.335938 108.058594 60.261719 C 107.851562 60.136719 107.660156 59.96875 107.71875 59.695312 C 107.761719 59.464844 107.863281 59.253906 107.984375 58.921875 Z M 107.984375 58.921875 " fill-opacity="1" fill-rule="nonzero"/></svg>