<svg xmlns="http://www.w3.org/2000/svg" xmlns:xlink="http://www.w3.org/1999/xlink" width="500" zoomAndPan="magnify" viewBox="0 0 375 374.999991" height="500" preserveAspectRatio="xMidYMid meet" version="1.0"><defs><clipPath id="72d20a6d07"><path d="M 87.796875 95.164062 L 287.296875 95.164062 L 287.296875 293 L 87.796875 293 Z M 87.796875 95.164062 " clip-rule="nonzero"/></clipPath><clipPath id="0b83ed8608"><path d="M 118 151 L 264 151 L 264 242.628906 L 118 242.628906 Z M 118 151 " clip-rule="nonzero"/></clipPath><clipPath id="a74539f10b"><path d="M 114 145.878906 L 260 145.878906 L 260 237 L 114 237 Z M 114 145.878906 " clip-rule="nonzero"/></clipPath></defs><g clip-path="url(#72d20a6d07)"><path fill="#e41f28" d="M 271.246094 251.078125 C 265.523438 251.078125 262.246094 250.917969 258.988281 251.128906 C 256.277344 251.308594 253.597656 251.929688 250.917969 252.351562 C 251.660156 258.640625 252.28125 263.960938 252.882812 269.050781 C 249.960938 269.730469 248.898438 270.34375 248.078125 270.109375 C 243.960938 268.9375 239.4375 265.726562 235.933594 266.628906 C 229.789062 268.214844 233.953125 274.046875 233.554688 278.097656 C 233.085938 282.890625 229.15625 284.789062 225.011719 282.175781 C 221.820312 280.164062 219.015625 277.53125 214.171875 273.699219 C 212.59375 279.058594 211.707031 282.589844 210.515625 286.019531 C 208.515625 291.765625 204.910156 292.632812 200.765625 288.308594 C 199.433594 286.921875 198.882812 284.8125 197.664062 283.28125 C 196.792969 282.179688 195.402344 281.488281 192.683594 279.433594 C 189.25 283.878906 185.933594 288.179688 182.699219 292.367188 C 172.121094 293.3125 177.632812 279.933594 168.785156 278.4375 C 165.453125 281.308594 161.539062 284.679688 158.183594 287.574219 C 147.769531 285.679688 155.136719 275.242188 147.828125 271.378906 C 143.859375 273.183594 139.191406 275.304688 135.042969 277.1875 C 125.671875 272.417969 135.722656 264.628906 130.105469 258.609375 C 125.097656 258.957031 119.25 259.367188 111.507812 259.90625 C 113.871094 253.125 115.550781 248.304688 117.691406 242.140625 C 110.921875 240.851562 104.875 239.699219 97.15625 238.230469 C 101.265625 231.976562 104.101562 227.65625 107.875 221.917969 C 101.78125 219.460938 96.722656 217.421875 89.328125 214.4375 C 94.355469 209.257812 98.132812 205.363281 103.121094 200.226562 C 98.339844 196.519531 93.707031 192.933594 87.796875 188.351562 C 94.023438 184.453125 99.015625 181.328125 104.941406 177.617188 C 100.835938 172.761719 97.511719 168.832031 94.519531 165.289062 C 97.488281 155.6875 107.238281 162.871094 111.621094 155.921875 C 109.765625 151.207031 107.632812 145.777344 104.617188 138.105469 C 112.058594 138.855469 116.65625 139.316406 121.308594 139.789062 C 125.839844 137.046875 124.433594 133.5 123.191406 129.484375 C 122.433594 127.035156 123.25 124.097656 123.359375 121.378906 C 126.039062 121.546875 128.785156 121.398438 131.378906 121.964844 C 134.09375 122.558594 136.660156 123.828125 140.480469 125.238281 C 141.851562 118.367188 143.003906 112.609375 144.476562 105.261719 C 150.277344 108.875 154.632812 111.585938 160.332031 115.132812 C 162.820312 109.558594 165.066406 104.53125 167.128906 99.898438 C 176.703125 97.519531 175.425781 109.648438 183.433594 109.847656 C 186.464844 105.894531 189.910156 101.414062 194.621094 95.273438 C 198.105469 101.625 200.765625 106.46875 204.0625 112.484375 C 209.429688 108.609375 214.164062 105.1875 220.15625 100.863281 C 222.320312 108.023438 224.019531 113.636719 225.765625 119.398438 C 243.820312 111.839844 243.820312 111.839844 244.058594 130.144531 C 249.476562 136.296875 257.496094 124.113281 263.027344 133.5 C 261.539062 137.433594 259.867188 141.851562 257.53125 148.03125 C 264.023438 149.050781 269.460938 149.910156 274.621094 150.71875 C 279.867188 159.207031 267.570312 160.839844 269.085938 168.929688 C 273.546875 170.71875 278.730469 172.796875 283.535156 174.722656 C 285.636719 184.28125 273.472656 182.679688 273.230469 190.882812 C 277.027344 193.941406 281.34375 197.417969 287.199219 202.128906 C 281.039062 205.738281 276.289062 208.527344 270.402344 211.976562 C 274.300781 217.003906 277.683594 221.363281 282.480469 227.550781 C 275.585938 229.316406 270.277344 230.667969 263.257812 232.464844 C 265.730469 238.246094 267.902344 243.296875 271.246094 251.078125 Z M 271.246094 251.078125 " fill-opacity="1" fill-rule="nonzero"/></g><g clip-path="url(#0b83ed8608)"><path fill="#870303" d="M 250.867188 199.296875 L 254.046875 199.296875 C 256.941406 199.296875 259.660156 200.59375 261.480469 202.84375 C 263.292969 205.078125 264 208.035156 263.402344 210.851562 L 262.753906 213.890625 C 262.296875 216.027344 261.152344 217.867188 259.578125 219.195312 C 259.582031 219.882812 259.511719 220.570312 259.367188 221.253906 L 258.71875 224.292969 C 257.875 228.242188 254.667969 231.183594 250.765625 231.757812 L 250.148438 234.675781 C 249.214844 239.101562 245.3125 242.261719 240.789062 242.261719 L 237.023438 242.261719 C 234.734375 242.261719 232.550781 241.449219 230.839844 239.996094 C 229.160156 241.421875 226.988281 242.261719 224.65625 242.261719 L 220.886719 242.261719 C 219.457031 242.261719 218.066406 241.945312 216.808594 241.351562 C 214.738281 242.183594 212.425781 242.621094 209.933594 242.621094 C 203.730469 242.621094 198.605469 239.957031 195.84375 235.605469 C 190.761719 239.355469 184.285156 241.347656 176.746094 241.347656 C 166.332031 241.347656 157.734375 237.691406 152.652344 231.230469 L 152.515625 231.867188 C 151.46875 236.832031 147.097656 240.371094 142.019531 240.371094 L 131.492188 240.371094 C 128.21875 240.371094 125.171875 238.910156 123.125 236.359375 C 121.085938 233.820312 120.3125 230.496094 121.019531 227.324219 L 129.394531 189.621094 L 128.804688 189.621094 C 125.734375 189.621094 122.855469 188.335938 120.808594 186.046875 C 118.765625 183.765625 117.800781 180.742188 118.144531 177.703125 L 118.808594 171.769531 C 119.414062 166.382812 123.941406 162.296875 129.367188 162.242188 C 134.097656 162.195312 137.921875 162.546875 140.871094 158.464844 C 142.902344 155.65625 146.105469 154.019531 149.570312 154.019531 L 155.75 154.019531 C 159.003906 154.019531 162.039062 155.464844 164.085938 157.992188 C 164.496094 158.5 164.859375 159.035156 165.164062 159.597656 C 170.371094 155.296875 177.238281 153.039062 185.46875 153.039062 C 193.734375 153.039062 200.882812 155.394531 206.019531 159.636719 C 208.910156 154.648438 214.007812 151.769531 220.40625 151.769531 C 224.988281 151.769531 228.957031 153.273438 231.789062 155.839844 C 233.667969 153.609375 236.425781 152.3125 239.375 152.3125 L 242.109375 152.3125 C 245.820312 152.3125 249.195312 154.363281 250.90625 157.652344 C 252.613281 160.933594 252.347656 164.890625 250.21875 167.917969 L 247.476562 171.816406 C 252.542969 174.964844 255.242188 180.820312 253.695312 187.828125 L 252.070312 195.527344 C 251.785156 196.871094 251.378906 198.132812 250.867188 199.296875 Z M 250.867188 199.296875 " fill-opacity="1" fill-rule="evenodd"/></g><g clip-path="url(#a74539f10b)"><path fill="#e41f28" d="M 247.066406 193.417969 L 250.246094 193.417969 C 253.136719 193.417969 255.859375 194.71875 257.679688 196.964844 C 259.492188 199.203125 260.199219 202.15625 259.601562 204.972656 L 258.953125 208.011719 C 258.496094 210.148438 257.351562 211.988281 255.777344 213.320312 C 255.78125 214.003906 255.710938 214.695312 255.566406 215.375 L 254.917969 218.414062 C 254.074219 222.363281 250.867188 225.304688 246.964844 225.878906 L 246.347656 228.796875 C 245.414062 233.222656 241.511719 236.382812 236.988281 236.382812 L 233.222656 236.382812 C 230.933594 236.382812 228.75 235.570312 227.039062 234.121094 C 225.359375 235.542969 223.1875 236.382812 220.855469 236.382812 L 217.085938 236.382812 C 215.65625 236.382812 214.265625 236.066406 213.007812 235.472656 C 210.9375 236.304688 208.625 236.742188 206.132812 236.742188 C 199.929688 236.742188 194.804688 234.078125 192.039062 229.730469 C 186.960938 233.480469 180.484375 235.472656 172.945312 235.472656 C 162.53125 235.472656 153.933594 231.816406 148.851562 225.351562 L 148.714844 225.988281 C 147.667969 230.953125 143.296875 234.492188 138.21875 234.492188 L 127.691406 234.492188 C 124.417969 234.492188 121.371094 233.03125 119.324219 230.480469 C 117.285156 227.941406 116.511719 224.621094 117.21875 221.445312 L 125.59375 183.742188 L 125.003906 183.742188 C 121.933594 183.742188 119.054688 182.457031 117.007812 180.167969 C 114.964844 177.886719 114 174.863281 114.34375 171.824219 L 115.007812 165.890625 C 115.613281 160.503906 120.140625 156.417969 125.566406 156.363281 C 130.296875 156.316406 134.121094 156.667969 137.070312 152.585938 C 139.101562 149.78125 142.304688 148.140625 145.769531 148.140625 L 151.949219 148.140625 C 155.203125 148.140625 158.238281 149.585938 160.285156 152.113281 C 160.695312 152.621094 161.054688 153.15625 161.363281 153.71875 C 166.570312 149.417969 173.4375 147.164062 181.667969 147.164062 C 189.933594 147.164062 197.082031 149.515625 202.21875 153.757812 C 205.109375 148.769531 210.207031 145.890625 216.605469 145.890625 C 221.1875 145.890625 225.15625 147.394531 227.988281 149.960938 C 229.867188 147.730469 232.625 146.433594 235.574219 146.433594 L 238.308594 146.433594 C 242.015625 146.433594 245.394531 148.484375 247.105469 151.773438 C 248.8125 155.058594 248.546875 159.011719 246.417969 162.039062 L 243.675781 165.941406 C 248.742188 169.085938 251.441406 174.941406 249.894531 181.949219 L 248.269531 189.648438 C 247.984375 190.996094 247.578125 192.253906 247.066406 193.417969 Z M 247.066406 193.417969 " fill-opacity="1" fill-rule="evenodd"/></g><path fill="#ffffff" d="M 138.21875 225.609375 L 127.691406 225.609375 C 127.113281 225.609375 126.617188 225.371094 126.257812 224.917969 C 125.894531 224.46875 125.769531 223.933594 125.894531 223.371094 L 136.175781 177.09375 C 136.300781 176.53125 136.175781 175.996094 135.8125 175.546875 C 135.453125 175.097656 134.957031 174.859375 134.378906 174.859375 L 125.003906 174.859375 C 124.460938 174.859375 123.996094 174.648438 123.632812 174.246094 C 123.273438 173.839844 123.117188 173.351562 123.175781 172.8125 L 123.84375 166.882812 C 123.949219 165.953125 124.71875 165.257812 125.652344 165.25 C 134.550781 165.160156 139.648438 164.191406 144.277344 157.789062 C 144.632812 157.292969 145.160156 157.027344 145.769531 157.027344 L 151.949219 157.027344 C 152.523438 157.027344 153.019531 157.261719 153.378906 157.707031 C 153.742188 158.152344 153.867188 158.683594 153.75 159.246094 L 140.019531 224.148438 C 139.835938 225.007812 139.097656 225.609375 138.21875 225.609375 Z M 172.945312 226.585938 C 158.972656 226.585938 150.386719 218.863281 153.335938 204.738281 L 159.90625 173.585938 C 162.386719 161.894531 169.644531 156.046875 181.667969 156.046875 C 195.429688 156.046875 204.222656 163.796875 201.273438 177.894531 L 194.707031 209.050781 C 192.304688 220.550781 184.746094 226.585938 172.945312 226.585938 Z M 173.238281 214.632812 C 177.421875 214.632812 179.96875 212.414062 180.882812 207.972656 C 181.773438 203.714844 187.941406 175.714844 187.941406 173.878906 C 187.941406 169.917969 185.257812 168 181.277344 168 C 177.09375 168 174.578125 170.1875 173.726562 174.5625 C 172.785156 179.207031 166.667969 206.6875 166.667969 208.855469 C 166.667969 212.78125 169.355469 214.632812 173.238281 214.632812 Z M 173.238281 214.632812 " fill-opacity="1" fill-rule="nonzero"/><path fill="#ffffff" d="M 214.042969 176.472656 C 208.960938 176.472656 206.136719 173.601562 207.222656 168.730469 L 208.859375 161 C 208.859375 160.992188 208.859375 160.988281 208.863281 160.980469 C 209.808594 156.84375 212.390625 154.773438 216.605469 154.773438 C 221.640625 154.773438 224.515625 157.625 223.425781 162.515625 L 221.789062 170.257812 C 220.878906 174.398438 218.296875 176.472656 214.042969 176.472656 Z M 212.910156 193.480469 L 210.125 193.480469 C 209.730469 193.480469 209.394531 193.277344 209.214844 192.929688 C 209.035156 192.582031 209.0625 192.1875 209.285156 191.867188 L 234.738281 155.753906 C 234.933594 155.472656 235.230469 155.320312 235.574219 155.320312 L 238.308594 155.320312 C 238.699219 155.320312 239.035156 155.523438 239.21875 155.871094 C 239.398438 156.21875 239.371094 156.609375 239.144531 156.929688 L 213.746094 193.046875 C 213.550781 193.328125 213.253906 193.480469 212.910156 193.480469 Z M 214.152344 172.382812 C 215.601562 172.382812 216.511719 171.605469 216.875 170.050781 C 216.878906 170.042969 216.878906 170.035156 216.882812 170.027344 L 218.765625 160.992188 C 218.78125 160.90625 218.789062 160.828125 218.785156 160.738281 C 218.730469 159.488281 217.929688 158.863281 216.386719 158.863281 C 214.96875 158.863281 214.097656 159.625 213.769531 161.152344 L 211.972656 169.523438 C 211.96875 169.539062 211.96875 169.554688 211.964844 169.570312 C 211.664062 170.710938 212.097656 172.382812 214.152344 172.382812 Z M 231.824219 194.027344 C 226.746094 194.027344 223.917969 191.15625 225.007812 186.285156 L 226.640625 178.554688 C 226.640625 178.546875 226.644531 178.542969 226.644531 178.535156 C 227.589844 174.398438 230.171875 172.328125 234.386719 172.328125 C 239.425781 172.328125 242.300781 175.179688 241.207031 180.070312 L 239.570312 187.8125 C 238.660156 191.953125 236.078125 194.027344 231.824219 194.027344 Z M 231.933594 189.9375 C 233.382812 189.9375 234.292969 189.160156 234.660156 187.605469 C 234.660156 187.597656 234.664062 187.589844 234.664062 187.578125 L 236.546875 178.546875 C 236.566406 178.460938 236.570312 178.382812 236.566406 178.292969 C 236.511719 177.042969 235.714844 176.417969 234.171875 176.417969 C 232.753906 176.417969 231.878906 177.179688 231.550781 178.707031 L 229.757812 187.078125 C 229.753906 187.09375 229.75 187.109375 229.746094 187.125 C 229.445312 188.261719 229.882812 189.9375 231.933594 189.9375 Z M 231.933594 189.9375 " fill-opacity="1" fill-rule="nonzero"/><path fill="#ffffff" d="M 236.210938 199.035156 C 236.839844 198.703125 237.550781 198.515625 238.304688 198.515625 L 250.25 198.515625 C 251.601562 198.515625 252.867188 199.121094 253.71875 200.171875 C 254.566406 201.21875 254.894531 202.59375 254.613281 203.910156 L 253.964844 206.949219 C 253.527344 209.007812 251.714844 210.476562 249.609375 210.480469 C 249.632812 210.511719 249.660156 210.542969 249.6875 210.574219 C 250.53125 211.621094 250.863281 212.996094 250.582031 214.3125 L 249.933594 217.351562 C 249.492188 219.414062 247.675781 220.882812 245.566406 220.882812 L 242.8125 220.882812 L 241.363281 227.746094 C 240.925781 229.8125 239.105469 231.285156 236.992188 231.285156 L 233.226562 231.285156 C 231.871094 231.285156 230.605469 230.683594 229.753906 229.632812 C 228.90625 228.585938 228.578125 227.210938 228.859375 225.894531 L 229.933594 220.855469 C 229.765625 220.875 229.601562 220.882812 229.429688 220.882812 L 226.675781 220.882812 L 225.226562 227.746094 C 224.789062 229.8125 222.972656 231.285156 220.859375 231.285156 L 217.089844 231.285156 C 215.734375 231.285156 214.472656 230.683594 213.621094 229.632812 C 213.566406 229.566406 213.515625 229.5 213.464844 229.429688 C 211.511719 230.875 209.023438 231.644531 206.136719 231.644531 C 198.679688 231.644531 193.613281 226.683594 195.222656 219.050781 L 197.636719 207.605469 C 198.917969 201.535156 203.144531 198.15625 209.339844 198.15625 C 212.933594 198.15625 215.984375 199.332031 217.988281 201.410156 C 218.632812 199.6875 220.285156 198.515625 222.167969 198.515625 L 234.113281 198.515625 C 234.855469 198.515625 235.574219 198.699219 236.210938 199.035156 Z M 236.210938 199.035156 " fill-opacity="1" fill-rule="evenodd"/><path fill="#e41f28" d="M 206.132812 227.859375 C 201 227.859375 197.84375 225.023438 198.929688 219.832031 L 201.339844 208.386719 C 202.253906 204.089844 204.917969 201.945312 209.335938 201.945312 C 214.394531 201.945312 217.621094 204.789062 216.539062 209.96875 L 214.128906 221.417969 C 213.246094 225.640625 210.46875 227.859375 206.132812 227.859375 Z M 206.238281 223.46875 C 207.777344 223.46875 208.710938 222.652344 209.050781 221.019531 C 209.375 219.457031 211.640625 209.171875 211.640625 208.496094 C 211.640625 207.039062 210.65625 206.335938 209.191406 206.335938 C 207.65625 206.335938 206.730469 207.140625 206.421875 208.746094 C 206.074219 210.449219 203.828125 220.550781 203.828125 221.34375 C 203.828125 222.789062 204.8125 223.46875 206.238281 223.46875 Z M 220.855469 227.5 L 217.085938 227.5 C 216.875 227.5 216.695312 227.414062 216.5625 227.25 C 216.429688 227.085938 216.382812 226.890625 216.425781 226.683594 L 221.503906 202.839844 C 221.570312 202.523438 221.84375 202.304688 222.167969 202.304688 L 234.109375 202.304688 C 234.320312 202.304688 234.503906 202.390625 234.636719 202.554688 C 234.769531 202.71875 234.816406 202.914062 234.769531 203.121094 L 234.121094 206.160156 C 234.054688 206.476562 233.785156 206.695312 233.460938 206.695312 L 226.378906 206.695312 C 226.058594 206.695312 225.785156 206.914062 225.71875 207.226562 L 224.710938 211.886719 C 224.667969 212.09375 224.714844 212.289062 224.847656 212.453125 C 224.980469 212.617188 225.160156 212.707031 225.375 212.707031 L 230.074219 212.707031 C 230.285156 212.707031 230.46875 212.792969 230.601562 212.957031 C 230.734375 213.121094 230.78125 213.316406 230.738281 213.523438 L 230.089844 216.5625 C 230.019531 216.878906 229.75 217.097656 229.425781 217.097656 L 224.148438 217.097656 C 223.824219 217.097656 223.554688 217.316406 223.488281 217.632812 L 221.515625 226.964844 C 221.449219 227.28125 221.175781 227.5 220.855469 227.5 Z M 236.988281 227.5 L 233.222656 227.5 C 233.011719 227.5 232.832031 227.414062 232.699219 227.25 C 232.566406 227.085938 232.519531 226.890625 232.5625 226.683594 L 237.640625 202.839844 C 237.707031 202.523438 237.980469 202.304688 238.300781 202.304688 L 250.246094 202.304688 C 250.457031 202.304688 250.636719 202.390625 250.769531 202.554688 C 250.902344 202.71875 250.949219 202.914062 250.90625 203.121094 L 250.257812 206.160156 C 250.191406 206.476562 249.917969 206.695312 249.597656 206.695312 L 242.515625 206.695312 C 242.191406 206.695312 241.921875 206.914062 241.851562 207.226562 L 240.847656 211.886719 C 240.804688 212.09375 240.851562 212.289062 240.984375 212.453125 C 241.117188 212.617188 241.296875 212.707031 241.507812 212.707031 L 246.210938 212.707031 C 246.421875 212.707031 246.605469 212.792969 246.738281 212.957031 C 246.871094 213.121094 246.917969 213.316406 246.871094 213.523438 L 246.222656 216.5625 C 246.15625 216.878906 245.886719 217.097656 245.5625 217.097656 L 240.285156 217.097656 C 239.960938 217.097656 239.6875 217.316406 239.621094 217.632812 L 237.652344 226.964844 C 237.585938 227.28125 237.3125 227.5 236.988281 227.5 Z M 236.988281 227.5 " fill-opacity="1" fill-rule="nonzero"/></svg>